<?xml version="1.0" encoding="UTF-8"?>
<!DOCTYPE svg PUBLIC "-//W3C//DTD SVG 1.1//EN" "http://www.w3.org/Graphics/SVG/1.1/DTD/svg11.dtd">
<svg xmlns="http://www.w3.org/2000/svg" version="1.1" width="1302px" height="1005px" style="shape-rendering:geometricPrecision; text-rendering:geometricPrecision; image-rendering:optimizeQuality; fill-rule:evenodd; clip-rule:evenodd" xmlns:xlink="http://www.w3.org/1999/xlink">
<g><path style="opacity:0.096" fill="#000000" d="M 1.5,-0.5 C 25.5,-0.5 49.5,-0.5 73.5,-0.5C 71.6785,1.85749 69.3452,2.19082 66.5,0.5C 65.6919,0.807619 65.0253,1.30762 64.5,2C 67.2145,3.79364 70.2145,4.96031 73.5,5.5C 72.4391,8.29454 73.6058,9.62787 77,9.5C 81.9083,9.03284 86.7416,8.19951 91.5,7C 92.3686,4.63219 94.0353,3.13219 96.5,2.5C 107.448,3.47753 118.448,3.81086 129.5,3.5C 129.5,2.16667 129.5,0.833333 129.5,-0.5C 185.5,-0.5 241.5,-0.5 297.5,-0.5C 297.737,3.28865 298.404,3.28865 299.5,-0.5C 317.167,-0.5 334.833,-0.5 352.5,-0.5C 353.548,1.93268 354.214,1.93268 354.5,-0.5C 364.833,-0.5 375.167,-0.5 385.5,-0.5C 388.115,4.91207 390.948,10.2454 394,15.5C 394.497,18.146 394.664,20.8127 394.5,23.5C 396.39,23.7035 397.89,23.0368 399,21.5C 403.317,23.1477 407.817,23.8144 412.5,23.5C 412.5,20.8333 412.5,18.1667 412.5,15.5C 413.833,15.5 415.167,15.5 416.5,15.5C 416.643,13.7376 416.309,12.0709 415.5,10.5C 409.193,9.66941 402.859,9.16941 396.5,9C 403.658,7.53781 410.992,7.03781 418.5,7.5C 418.708,9.92006 418.374,12.2534 417.5,14.5C 418.325,15.3857 419.325,15.719 420.5,15.5C 420.073,12.2123 420.74,9.21227 422.5,6.5C 427.734,4.85699 433.067,3.85699 438.5,3.5C 438.5,2.16667 438.5,0.833333 438.5,-0.5C 482.167,-0.5 525.833,-0.5 569.5,-0.5C 569.5,0.833333 569.5,2.16667 569.5,3.5C 572.167,3.5 574.833,3.5 577.5,3.5C 577.343,4.87344 577.51,6.20677 578,7.5C 579.079,4.93731 579.579,2.27065 579.5,-0.5C 580.167,-0.5 580.833,-0.5 581.5,-0.5C 582.428,7.42572 583.428,7.42572 584.5,-0.5C 596.833,-0.5 609.167,-0.5 621.5,-0.5C 621.786,1.93268 622.452,1.93268 623.5,-0.5C 674.833,-0.5 726.167,-0.5 777.5,-0.5C 777.833,2.16667 778.167,2.16667 778.5,-0.5C 791.167,-0.5 803.833,-0.5 816.5,-0.5C 817.592,3.87787 820.258,5.37787 824.5,4C 826.758,9.83287 831.092,11.9995 837.5,10.5C 836.047,7.01365 835.381,3.34699 835.5,-0.5C 836.167,-0.5 836.833,-0.5 837.5,-0.5C 841.194,1.40453 845.361,2.40453 850,2.5C 854.673,0.900419 859.006,1.56709 863,4.5C 863.483,3.55198 863.649,2.55198 863.5,1.5C 865.199,1.66018 866.866,1.49351 868.5,1C 867.944,0.617425 867.611,0.117425 867.5,-0.5C 869.5,-0.5 871.5,-0.5 873.5,-0.5C 873.181,1.7505 873.681,3.7505 875,5.5C 875.5,5 876,4.5 876.5,4C 887.225,3.85451 897.891,3.02118 908.5,1.5C 912.063,1.03202 915.063,2.03202 917.5,4.5C 917.833,4 918.167,3.5 918.5,3C 917.456,1.8261 916.456,0.659436 915.5,-0.5C 925.5,-0.5 935.5,-0.5 945.5,-0.5C 946.833,0.833333 948.167,0.833333 949.5,-0.5C 980.833,-0.5 1012.17,-0.5 1043.5,-0.5C 1043.86,2.89805 1043.19,6.06472 1041.5,9C 1041.93,10.4341 1042.76,11.6008 1044,12.5C 1044.67,13.5 1044.67,14.5 1044,15.5C 1041.18,19.4312 1037.51,20.4312 1033,18.5C 1032.83,18.1667 1032.67,17.8333 1032.5,17.5C 1034.77,16.6858 1037.1,16.1858 1039.5,16C 1039.17,15.6667 1038.83,15.3333 1038.5,15C 1041.1,13.0692 1041.1,11.2358 1038.5,9.5C 1037.24,11.6789 1035.74,13.6789 1034,15.5C 1032.3,14.5939 1030.47,14.2606 1028.5,14.5C 1028.33,17.5036 1029.67,19.5036 1032.5,20.5C 1033.39,21.325 1033.72,22.325 1033.5,23.5C 1034.83,23.5 1036.17,23.5 1037.5,23.5C 1037.15,26.0728 1037.65,28.4062 1039,30.5C 1040.94,23.8445 1041.77,24.1778 1041.5,31.5C 1044.52,31.6646 1047.52,31.498 1050.5,31C 1047.92,29.3883 1047.92,27.8883 1050.5,26.5C 1051.33,27.5 1052.17,28.5 1053,29.5C 1053.33,29.1667 1053.67,28.8333 1054,28.5C 1052.18,24.9167 1051.02,20.9167 1050.5,16.5C 1049.91,16.2907 1049.41,15.9574 1049,15.5C 1048.33,13.1667 1048.33,10.8333 1049,8.5C 1049.41,8.04265 1049.91,7.70931 1050.5,7.5C 1051.48,10.0865 1051.81,12.7531 1051.5,15.5C 1052.83,15.5 1054.17,15.5 1055.5,15.5C 1055.09,19.0479 1055.59,22.3812 1057,25.5C 1057.5,19.5092 1057.67,13.5092 1057.5,7.5C 1059.5,7.5 1061.5,7.5 1063.5,7.5C 1064.64,4.99632 1065.31,2.32965 1065.5,-0.5C 1085.5,-0.5 1105.5,-0.5 1125.5,-0.5C 1125.71,2.04192 1127.04,3.70858 1129.5,4.5C 1138.13,3.4373 1146.8,3.4373 1155.5,4.5C 1155.5,5.5 1155.5,6.5 1155.5,7.5C 1156.83,7.5 1158.17,7.5 1159.5,7.5C 1159.5,10.1667 1159.5,12.8333 1159.5,15.5C 1161.36,15.5391 1162.69,14.7058 1163.5,13C 1161.9,11.9342 1160.9,10.4342 1160.5,8.5C 1161.32,7.61432 1162.32,7.28099 1163.5,7.5C 1163.34,8.87344 1163.51,10.2068 1164,11.5C 1164.94,9.93864 1166.11,8.60531 1167.5,7.5C 1168.92,9.3359 1170.09,11.3359 1171,13.5C 1171.49,12.2068 1171.66,10.8734 1171.5,9.5C 1178.29,10.9561 1181.79,8.28941 1182,1.5C 1185.02,5.59921 1186.19,4.93255 1185.5,-0.5C 1194.5,-0.5 1203.5,-0.5 1212.5,-0.5C 1214.08,1.73057 1216.24,3.39724 1219,4.5C 1222.47,3.1969 1225.97,3.1969 1229.5,4.5C 1231.96,3.70858 1233.29,2.04192 1233.5,-0.5C 1234.5,-0.5 1235.5,-0.5 1236.5,-0.5C 1237.5,2.16667 1238.5,2.16667 1239.5,-0.5C 1259.5,-0.5 1279.5,-0.5 1299.5,-0.5C 1230.23,41.1444 1160.56,82.311 1090.5,123C 1056.25,171.492 1022.25,220.159 988.5,269C 1002.5,269.5 1016.5,269.667 1030.5,269.5C 1030.5,286.167 1030.5,302.833 1030.5,319.5C 1014.5,319.5 998.5,319.5 982.5,319.5C 982.5,336.5 982.5,353.5 982.5,370.5C 991.418,370.817 1000.25,370.484 1009,369.5C 1012.69,359.278 1016.53,349.112 1020.5,339C 1055.61,289.967 1090.11,240.467 1124,190.5C 1125.87,188.291 1128.04,186.458 1130.5,185C 1160.67,167.085 1190.67,148.918 1220.5,130.5C 1246.2,89.299 1271.7,47.9657 1297,6.5C 1298.05,4.3825 1299.55,2.71583 1301.5,1.5C 1301.5,87.8333 1301.5,174.167 1301.5,260.5C 1299.82,261.747 1298.49,263.414 1297.5,265.5C 1296.32,263.954 1295.32,262.287 1294.5,260.5C 1280.83,261.646 1267.33,262.98 1254,264.5C 1253.48,262.777 1252.48,261.444 1251,260.5C 1249.02,262.643 1246.85,264.643 1244.5,266.5C 1263.49,267.5 1282.49,267.833 1301.5,267.5C 1301.5,268.5 1301.5,269.5 1301.5,270.5C 1279.5,270.333 1257.5,270.5 1235.5,271C 1232.69,273.521 1233.02,275.187 1236.5,276C 1258.19,276.108 1279.86,276.275 1301.5,276.5C 1301.5,277.167 1301.5,277.833 1301.5,278.5C 1277.83,278.333 1254.16,278.5 1230.5,279C 1230.17,279.333 1229.83,279.667 1229.5,280C 1230.67,280.167 1231.83,280.333 1233,280.5C 1247.48,279.392 1261.98,279.226 1276.5,280C 1276.83,280.333 1277.17,280.667 1277.5,281C 1263.83,281.333 1250.17,281.667 1236.5,282C 1239.76,282.939 1243.1,283.439 1246.5,283.5C 1253.85,282.415 1261.18,282.415 1268.5,283.5C 1260.53,284.498 1252.53,284.831 1244.5,284.5C 1244.5,287.833 1244.5,291.167 1244.5,294.5C 1247.17,295.167 1249.83,295.833 1252.5,296.5C 1252.5,295.5 1252.5,294.5 1252.5,293.5C 1251.45,293.649 1250.45,293.483 1249.5,293C 1251.81,292.503 1254.14,292.337 1256.5,292.5C 1256.21,294.288 1256.55,295.955 1257.5,297.5C 1258.74,296.754 1260.07,296.421 1261.5,296.5C 1262.16,300.466 1262.5,304.466 1262.5,308.5C 1264.17,308.5 1265.83,308.5 1267.5,308.5C 1267.83,303.167 1268.17,297.833 1268.5,292.5C 1269.98,292.238 1271.31,292.571 1272.5,293.5C 1270.12,298.223 1269.12,303.223 1269.5,308.5C 1272.47,308.89 1275.13,308.223 1277.5,306.5C 1278.17,307.167 1278.83,307.833 1279.5,308.5C 1281.59,304.616 1283.76,304.616 1286,308.5C 1288.51,307.128 1291.18,306.128 1294,305.5C 1295.85,308.041 1298.35,309.041 1301.5,308.5C 1301.5,310.5 1301.5,312.5 1301.5,314.5C 1299,310.395 1297,310.728 1295.5,315.5C 1297.26,323.304 1298.09,331.304 1298,339.5C 1298.33,339.833 1298.67,340.167 1299,340.5C 1299.77,335.012 1300.61,329.679 1301.5,324.5C 1301.5,379.167 1301.5,433.833 1301.5,488.5C 1300.52,485.713 1300.19,482.713 1300.5,479.5C 1299.5,479.5 1298.5,479.5 1297.5,479.5C 1297.5,493.167 1297.5,506.833 1297.5,520.5C 1298.5,520.5 1299.5,520.5 1300.5,520.5C 1300.19,517.287 1300.52,514.287 1301.5,511.5C 1301.5,584.167 1301.5,656.833 1301.5,729.5C 1297.91,731.782 1296.58,735.116 1297.5,739.5C 1298.5,739.5 1299.5,739.5 1300.5,739.5C 1300.19,736.615 1300.53,733.948 1301.5,731.5C 1301.5,736.167 1301.5,740.833 1301.5,745.5C 1300.44,744.4 1299.61,743.066 1299,741.5C 1298.67,742.167 1298.33,742.833 1298,743.5C 1298.42,753.182 1298.25,762.849 1297.5,772.5C 1298.5,772.5 1299.5,772.5 1300.5,772.5C 1300.19,769.615 1300.53,766.948 1301.5,764.5C 1301.5,812.833 1301.5,861.167 1301.5,909.5C 1300.68,907.611 1299.84,905.611 1299,903.5C 1297.77,908.721 1297.1,914.054 1297,919.5C 1295.17,921.24 1295.34,922.907 1297.5,924.5C 1297.29,925.086 1296.96,925.586 1296.5,926C 1297.26,928.069 1297.76,930.236 1298,932.5C 1299.01,931.663 1300.18,931.33 1301.5,931.5C 1301.5,955.833 1301.5,980.167 1301.5,1004.5C 1295.5,1004.5 1289.5,1004.5 1283.5,1004.5C 1282.83,1003.17 1282.17,1003.17 1281.5,1004.5C 1279.83,1004.5 1278.17,1004.5 1276.5,1004.5C 1276.5,1003.17 1276.5,1001.83 1276.5,1000.5C 1269.73,1000.82 1263.07,1000.15 1256.5,998.5C 1235.57,1000.41 1214.57,1001.07 1193.5,1000.5C 1193.66,997.813 1193.5,995.146 1193,992.5C 1191.36,989.456 1189.19,986.956 1186.5,985C 1187.35,982.23 1187.68,979.397 1187.5,976.5C 1186.5,976.5 1185.5,976.5 1184.5,976.5C 1184.81,979.247 1184.48,981.914 1183.5,984.5C 1181.86,986.925 1180.69,989.592 1180,992.5C 1179.5,989.854 1179.34,987.187 1179.5,984.5C 1177.5,984.5 1175.5,984.5 1173.5,984.5C 1173.81,987.247 1173.48,989.914 1172.5,992.5C 1171.83,990.833 1171.17,989.167 1170.5,987.5C 1168.34,989.573 1166.01,991.24 1163.5,992.5C 1162.24,995.011 1160.57,997.344 1158.5,999.5C 1155.89,1000.32 1153.23,1000.82 1150.5,1001C 1149.29,1002.04 1148.29,1003.21 1147.5,1004.5C 1146.5,1004.5 1145.5,1004.5 1144.5,1004.5C 1145.41,1003.26 1145.58,1001.93 1145,1000.5C 1144.21,1001.74 1143.71,1003.08 1143.5,1004.5C 1142.17,1004.5 1140.83,1004.5 1139.5,1004.5C 1138.77,1003.29 1138.43,1001.96 1138.5,1000.5C 1137.17,1000.5 1135.83,1000.5 1134.5,1000.5C 1134.57,1001.96 1134.23,1003.29 1133.5,1004.5C 1132.5,1004.5 1131.5,1004.5 1130.5,1004.5C 1125.63,1001.58 1120.46,1001.25 1115,1003.5C 1114.63,1002.58 1114.13,1001.75 1113.5,1001C 1107.43,1000.64 1101.43,999.81 1095.5,998.5C 1092.32,999.103 1089.15,999.769 1086,1000.5C 1083.84,1000.24 1081.84,999.578 1080,998.5C 1075.37,1000.31 1070.53,1000.98 1065.5,1000.5C 1065.5,997.833 1065.5,995.167 1065.5,992.5C 1064.17,992.5 1062.83,992.5 1061.5,992.5C 1061.85,994.635 1061.02,995.968 1059,996.5C 1055.87,995.796 1052.71,995.296 1049.5,995C 1049.04,994.586 1048.71,994.086 1048.5,993.5C 1044.89,992.511 1041.23,992.177 1037.5,992.5C 1037.3,996.35 1035.47,997.35 1032,995.5C 1030.3,996.364 1029.14,997.697 1028.5,999.5C 1026.6,1000.47 1024.6,1000.8 1022.5,1000.5C 1022.5,1001.83 1022.5,1003.17 1022.5,1004.5C 1015.5,1004.5 1008.5,1004.5 1001.5,1004.5C 1001.66,1003.13 1001.49,1001.79 1001,1000.5C 996.813,1002.88 992.479,1003.54 988,1002.5C 985.456,1002.34 983.29,1003 981.5,1004.5C 968.833,1004.5 956.167,1004.5 943.5,1004.5C 943.5,1003.17 943.5,1001.83 943.5,1000.5C 940.833,1000.5 938.167,1000.5 935.5,1000.5C 935.5,998.833 935.5,997.167 935.5,995.5C 929.794,995.829 924.128,995.495 918.5,994.5C 921.107,993.682 923.774,993.182 926.5,993C 920.175,992.5 913.842,992.334 907.5,992.5C 907.833,995.5 906.5,996.833 903.5,996.5C 903.67,997.822 903.337,998.989 902.5,1000C 897.177,1000.5 891.844,1000.67 886.5,1000.5C 886.5,999.167 886.5,997.833 886.5,996.5C 883.833,996.5 881.167,996.5 878.5,996.5C 878.5,995.167 878.5,993.833 878.5,992.5C 875.64,992.916 873.474,991.916 872,989.5C 868.67,991.573 865.17,991.906 861.5,990.5C 861.709,989.914 862.043,989.414 862.5,989C 861.207,988.51 859.873,988.343 858.5,988.5C 858.5,989.5 858.5,990.5 858.5,991.5C 855.681,991.869 852.848,992.202 850,992.5C 845.165,988.998 841.998,990.165 840.5,996C 839.552,996.483 838.552,996.649 837.5,996.5C 837.657,997.873 837.49,999.207 837,1000.5C 836.058,989.988 834.891,989.988 833.5,1000.5C 831.43,1000.55 829.597,999.885 828,998.5C 826.48,999.697 825.313,1001.2 824.5,1003C 823.552,1003.48 822.552,1003.65 821.5,1003.5C 821.5,1002.5 821.5,1001.5 821.5,1000.5C 813.097,1000.53 804.763,999.864 796.5,998.5C 796.5,1000.5 796.5,1002.5 796.5,1004.5C 791.167,1004.5 785.833,1004.5 780.5,1004.5C 780.5,1003.17 780.5,1001.83 780.5,1000.5C 777.989,999.24 775.656,997.573 773.5,995.5C 768.738,996.938 767.405,995.271 769.5,990.5C 768.009,989.756 766.509,989.09 765,988.5C 763.815,993.304 762.481,992.97 761,987.5C 760.506,989.134 760.34,990.801 760.5,992.5C 759.5,992.5 758.5,992.5 757.5,992.5C 757.547,986.147 756.881,985.98 755.5,992C 752.774,992.182 750.107,992.682 747.5,993.5C 748.711,994.72 748.711,995.887 747.5,997C 744.052,997.859 740.552,998.359 737,998.5C 734.698,998.4 732.698,997.733 731,996.5C 730.178,999.117 729.678,1001.78 729.5,1004.5C 676.167,1004.5 622.833,1004.5 569.5,1004.5C 568.706,1001.2 568.04,997.865 567.5,994.5C 562.833,994.5 558.167,994.5 553.5,994.5C 553.5,995.833 553.5,997.167 553.5,998.5C 547.812,999.168 542.479,998.168 537.5,995.5C 536.614,994.675 536.281,993.675 536.5,992.5C 533.15,992.665 529.817,992.498 526.5,992C 524.435,990.021 522.268,988.188 520,986.5C 512.215,993.151 503.382,995.151 493.5,992.5C 492.262,994.637 490.429,995.971 488,996.5C 487.503,999.146 487.336,1001.81 487.5,1004.5C 485.167,1004.5 482.833,1004.5 480.5,1004.5C 475.744,999.138 469.744,997.138 462.5,998.5C 462.5,996.5 462.5,994.5 462.5,992.5C 461.5,992.5 460.5,992.5 459.5,992.5C 458.066,1000.15 456.733,999.82 455.5,991.5C 452.428,991.817 449.428,991.484 446.5,990.5C 446.709,989.914 447.043,989.414 447.5,989C 433.9,987.212 420.233,986.046 406.5,985.5C 405.593,982.579 405.26,979.579 405.5,976.5C 404.5,976.5 403.5,976.5 402.5,976.5C 402.789,980.106 402.456,983.606 401.5,987C 397.769,986.76 395.103,988.26 393.5,991.5C 390.914,992.48 388.247,992.813 385.5,992.5C 385.617,994.484 384.95,996.15 383.5,997.5C 380.497,998.085 377.497,998.752 374.5,999.5C 379.734,1001.73 379.401,1003.06 373.5,1003.5C 373.5,1002.5 373.5,1001.5 373.5,1000.5C 357.153,1000.83 340.82,1000.5 324.5,999.5C 319.712,996.277 314.379,994.61 308.5,994.5C 311.107,993.682 313.774,993.182 316.5,993C 309.842,992.5 303.175,992.334 296.5,992.5C 296.833,995.5 295.5,996.833 292.5,996.5C 292.663,998.857 292.497,1001.19 292,1003.5C 290.152,1000.96 287.652,999.959 284.5,1000.5C 282.257,999.188 279.59,998.522 276.5,998.5C 271.3,999.485 266.3,999.152 261.5,997.5C 255.561,998.457 249.561,998.79 243.5,998.5C 243.5,996.833 243.5,995.167 243.5,993.5C 248.844,993.666 254.177,993.499 259.5,993C 253.833,992.333 248.167,992.333 242.5,993C 241.446,995.382 240.779,997.882 240.5,1000.5C 238.089,1000.86 236.589,999.863 236,997.5C 229.124,998.131 222.29,999.131 215.5,1000.5C 215.5,1001.83 215.5,1003.17 215.5,1004.5C 214.167,1004.5 212.833,1004.5 211.5,1004.5C 203.527,1002.57 195.193,1001.24 186.5,1000.5C 186.5,1001.83 186.5,1003.17 186.5,1004.5C 186.167,1004.5 185.833,1004.5 185.5,1004.5C 183.999,999.362 182.999,999.362 182.5,1004.5C 181.167,1004.5 179.833,1004.5 178.5,1004.5C 178.5,1002.5 178.5,1000.5 178.5,998.5C 175.457,999.205 173.79,1001.2 173.5,1004.5C 172.5,1004.5 171.5,1004.5 170.5,1004.5C 170.5,1003.17 170.5,1001.83 170.5,1000.5C 167.245,1000.01 164.578,1001.01 162.5,1003.5C 161.614,1002.68 161.281,1001.68 161.5,1000.5C 158.212,1000.93 155.212,1000.26 152.5,998.5C 151.117,1000.32 150.117,1002.32 149.5,1004.5C 148.167,1004.5 146.833,1004.5 145.5,1004.5C 145.167,1003.17 144.833,1003.17 144.5,1004.5C 138.833,1004.5 133.167,1004.5 127.5,1004.5C 127.167,999.167 126.833,999.167 126.5,1004.5C 120.167,1004.5 113.833,1004.5 107.5,1004.5C 106.194,1003.53 105.527,1002.2 105.5,1000.5C 104.022,1000.76 102.689,1000.43 101.5,999.5C 99.4266,997.344 97.7599,995.011 96.5,992.5C 94.1789,992.771 92.1789,992.104 90.5,990.5C 89.8333,991.167 89.1667,991.833 88.5,992.5C 86.5235,986.142 85.5235,986.142 85.5,992.5C 83.1188,990.692 80.4521,989.192 77.5,988C 76.6634,986.989 76.33,985.822 76.5,984.5C 73.6097,984.722 70.943,984.055 68.5,982.5C 66.677,983.747 64.677,984.414 62.5,984.5C 61.3034,991.026 59.6367,991.026 57.5,984.5C 38.333,986.471 18.9997,987.137 -0.5,986.5C -0.5,985.5 -0.5,984.5 -0.5,983.5C 16.17,983.667 32.8367,983.5 49.5,983C 48.6198,981.644 48.2865,980.144 48.5,978.5C 45.5525,978.777 42.7191,978.444 40,977.5C 36.9202,979.886 33.4202,980.886 29.5,980.5C 19.5676,978.839 9.56755,978.172 -0.5,978.5C -0.5,976.833 -0.5,975.167 -0.5,973.5C 6.05937,972.968 12.3927,973.635 18.5,975.5C 19.1667,975.167 19.8333,974.833 20.5,974.5C 14.7539,971.285 12.4205,966.285 13.5,959.5C 16.9881,959.295 20.3214,958.461 23.5,957C 20.9865,955.748 18.3198,955.248 15.5,955.5C 15.5,954.5 15.5,953.5 15.5,952.5C 18.2165,952.322 20.8832,951.822 23.5,951C 24.3366,949.989 24.67,948.822 24.5,947.5C 21.5,947.5 18.5,947.5 15.5,947.5C 15.5,946.5 15.5,945.5 15.5,944.5C 18.7766,944.216 21.9433,944.549 25,945.5C 25.1881,943.939 24.3547,943.272 22.5,943.5C 22.5,940.833 22.5,938.167 22.5,935.5C 23.5,935.5 24.5,935.5 25.5,935.5C 25.4249,932.794 25.0916,930.127 24.5,927.5C 23.5028,927.53 22.8361,927.03 22.5,926C 22.0216,923.774 21.355,921.608 20.5,919.5C 19.3206,923.808 17.9873,924.141 16.5,920.5C 13.5788,921.407 10.5788,921.74 7.5,921.5C 7.5,919.833 7.5,918.167 7.5,916.5C 4.83333,916.5 2.16667,916.5 -0.5,916.5C -0.5,907.5 -0.5,898.5 -0.5,889.5C 0.931268,890.78 1.59794,892.447 1.5,894.5C 2.83333,894.5 4.16667,894.5 5.5,894.5C 6.91748,890.998 7.58415,887.331 7.5,883.5C 10.2646,883.798 12.7646,884.798 15,886.5C 16.3369,884.996 18.0036,883.996 20,883.5C 20.6172,882.551 20.4506,881.718 19.5,881C 17.3921,880.64 15.3921,879.973 13.5,879C 15.3213,876.544 15.988,873.711 15.5,870.5C 13.8008,870.66 12.1341,870.494 10.5,870C 11.2438,867.093 12.9105,864.927 15.5,863.5C 10.2079,862.505 4.8746,862.172 -0.5,862.5C -0.5,861.833 -0.5,861.167 -0.5,860.5C 20.8333,860.167 20.8333,859.833 -0.5,859.5C -0.5,858.5 -0.5,857.5 -0.5,856.5C 4.8746,856.828 10.2079,856.495 15.5,855.5C 13.4823,854.491 11.4823,853.491 9.5,852.5C 9.09616,851.244 8.42949,850.077 7.5,849C 7.83611,847.97 8.50278,847.47 9.5,847.5C 10.1834,845.824 11.5168,845.157 13.5,845.5C 13.6633,843.143 13.4966,840.81 13,838.5C 12.3333,837.167 11.6667,837.167 11,838.5C 10.6667,835.5 10.3333,832.5 10,829.5C 9.66667,832.167 9.33333,834.833 9,837.5C 8.74354,834.443 8.24354,831.443 7.5,828.5C 9.9952,826.836 11.9952,824.67 13.5,822C 11.6787,819.544 11.012,816.711 11.5,813.5C 7.5,813.5 3.5,813.5 -0.5,813.5C -0.5,812.5 -0.5,811.5 -0.5,810.5C 2.16667,810.5 4.83333,810.5 7.5,810.5C 7.5,808.833 7.5,807.167 7.5,805.5C 6.5,805.5 5.5,805.5 4.5,805.5C 4.75628,803.063 5.42294,800.729 6.5,798.5C 3.86191,797.167 1.52858,797.5 -0.5,799.5C -0.5,797.167 -0.5,794.833 -0.5,792.5C 1.01739,792.511 2.18405,793.177 3,794.5C 4.26918,793.095 4.76918,791.429 4.5,789.5C 2.83333,789.5 1.16667,789.5 -0.5,789.5C -0.5,773.833 -0.5,758.167 -0.5,742.5C -0.166667,742.5 0.166667,742.5 0.5,742.5C 0.5,741.833 0.166667,741.5 -0.5,741.5C -0.5,702.833 -0.5,664.167 -0.5,625.5C 1.09457,627.111 2.26124,629.111 3,631.5C 4.92521,630.12 6.75854,628.62 8.5,627C 7.66337,625.989 7.33003,624.822 7.5,623.5C 4.83333,623.5 2.16667,623.5 -0.5,623.5C -0.5,612.167 -0.5,600.833 -0.5,589.5C 1.01739,589.511 2.18405,590.177 3,591.5C 3.33333,591.167 3.66667,590.833 4,590.5C 3.36059,586.243 2.86059,581.91 2.5,577.5C 3.5,577.5 4.5,577.5 5.5,577.5C 5.88083,572.123 6.5475,566.79 7.5,561.5C 4.83333,561.5 2.16667,561.5 -0.5,561.5C -0.5,560.5 -0.5,559.5 -0.5,558.5C 2.16667,558.5 4.83333,558.5 7.5,558.5C 7.35055,557.448 7.51722,556.448 8,555.5C 8.7199,557.255 9.88657,558.089 11.5,558C 14.9755,554.217 14.9755,550.717 11.5,547.5C 10.081,549.336 8.91434,551.336 8,553.5C 7.4444,549.071 7.9444,544.738 9.5,540.5C 8.40749,537.231 7.74082,533.897 7.5,530.5C 4.83333,530.5 2.16667,530.5 -0.5,530.5C -0.5,529.833 -0.5,529.167 -0.5,528.5C 2.1873,528.664 4.85397,528.497 7.5,528C 6.57203,527.612 5.90536,526.945 5.5,526C 6.70728,524.7 7.37394,523.2 7.5,521.5C 3.55096,521.307 3.55096,520.807 7.5,520C 6.67209,519.085 5.67209,518.419 4.5,518C 5.68723,516.981 6.68723,515.814 7.5,514.5C 5.2683,510.838 4.93497,507.005 6.5,503C 5.62404,501.414 4.62404,499.914 3.5,498.5C 2.37596,499.914 1.37596,501.414 0.5,503C 1.83333,506.333 1.83333,509.667 0.5,513C 3.064,514.736 2.73067,515.902 -0.5,516.5C -0.5,501.5 -0.5,486.5 -0.5,471.5C 10.1667,471.167 10.1667,470.833 -0.5,470.5C -0.5,469.5 -0.5,468.5 -0.5,467.5C 10.1667,466.833 10.1667,466.167 -0.5,465.5C -0.5,458.167 -0.5,450.833 -0.5,443.5C 2.8496,443.651 4.51626,445.485 4.5,449C 4.53172,450.971 3.69838,452.471 2,453.5C 1.50166,456.817 1.33499,460.15 1.5,463.5C 2.83333,463.5 4.16667,463.5 5.5,463.5C 5.17575,459.445 5.50909,455.445 6.5,451.5C 9.32359,452.245 11.3236,451.079 12.5,448C 10.65,444.534 11.65,442.701 15.5,442.5C 14.0014,433.291 13.0014,423.958 12.5,414.5C 11.8765,416.966 11.0432,419.299 10,421.5C 7.67194,416.506 6.83861,411.173 7.5,405.5C 4.83333,405.5 2.16667,405.5 -0.5,405.5C -0.5,404.833 -0.5,404.167 -0.5,403.5C 2.16667,403.5 4.83333,403.5 7.5,403.5C 7.5,401.833 7.5,400.167 7.5,398.5C 4.83333,398.5 2.16667,398.5 -0.5,398.5C -0.5,392.833 -0.5,387.167 -0.5,381.5C 5.99598,381.029 5.99598,380.029 -0.5,378.5C -0.5,370.5 -0.5,362.5 -0.5,354.5C 0.626561,355.122 1.62656,355.955 2.5,357C 1.55621,359.719 1.22288,362.552 1.5,365.5C 2.83333,365.5 4.16667,365.5 5.5,365.5C 5.78769,359.771 5.45436,354.104 4.5,348.5C 7.17199,342.472 8.17199,336.139 7.5,329.5C 8.5,329.5 9.5,329.5 10.5,329.5C 10.33,328.178 10.6634,327.011 11.5,326C 9.58187,324.23 9.08187,322.063 10,319.5C 10.9799,321.059 11.8133,322.726 12.5,324.5C 13.6409,321.938 14.4743,319.272 15,316.5C 15.7504,315.874 16.5838,315.374 17.5,315C 15.0426,313.488 15.0426,312.154 17.5,311C 16.8333,310.333 16.1667,309.667 15.5,309C 17.4865,306.53 17.9865,303.697 17,300.5C 14.1963,302.344 11.0297,303.011 7.5,302.5C 7.5,298.5 7.5,294.5 7.5,290.5C 6.5,290.5 5.5,290.5 4.5,290.5C 4.5,289.5 4.5,288.5 4.5,287.5C 5.5,287.5 6.5,287.5 7.5,287.5C 7.5,284.5 7.5,281.5 7.5,278.5C 4.83333,278.5 2.16667,278.5 -0.5,278.5C -0.5,267.833 -0.5,257.167 -0.5,246.5C 0.712371,247.23 1.71237,248.23 2.5,249.5C 6.29764,245.669 7.96431,241.002 7.5,235.5C 3.86687,235.557 3.7002,234.557 7,232.5C 7.49915,227.845 7.66582,223.179 7.5,218.5C 10.1667,218.5 12.8333,218.5 15.5,218.5C 15.5,217.167 15.5,215.833 15.5,214.5C 18.8333,214.5 20.5,216.167 20.5,219.5C 19.2438,221.345 21.5771,220.678 27.5,217.5C 21.6343,208.411 15.301,199.744 8.5,191.5C 5.7131,190.523 2.7131,190.19 -0.5,190.5C -0.5,189.5 -0.5,188.5 -0.5,187.5C 1.82441,187.338 3.49108,186.172 4.5,184C 2.96973,181.648 1.30307,179.481 -0.5,177.5C -0.5,118.833 -0.5,60.1667 -0.5,1.5C 1.45086,2.71583 2.95086,4.3825 4,6.5C 29.3018,47.9657 54.8018,89.299 80.5,130.5C 110.334,148.918 140.334,167.085 170.5,185C 172.96,186.458 175.127,188.291 177,190.5C 208.943,237.442 241.277,284.109 274,330.5C 274.167,329 274.333,327.5 274.5,326C 271.62,307.246 269.286,288.413 267.5,269.5C 282.504,269.667 297.504,269.5 312.5,269C 279.667,221.5 246.833,174 214,126.5C 146.021,85.2032 77.5213,44.7032 8.5,5C 5.98003,3.30288 3.6467,1.46955 1.5,-0.5 Z M 854.5,3.5 C 856.337,3.63945 856.67,4.30612 855.5,5.5C 854.702,5.04311 854.369,4.37644 854.5,3.5 Z M 696.5,4.5 C 698.337,4.63945 698.67,5.30612 697.5,6.5C 696.702,6.04311 696.369,5.37644 696.5,4.5 Z M 958.5,4.5 C 959.776,5.3864 959.776,6.3864 958.5,7.5C 957.438,6.57537 957.438,5.57537 958.5,4.5 Z M 1028.5,8.5 C 1029.71,7.21798 1031.04,7.21798 1032.5,8.5C 1031.19,9.62563 1029.86,9.62563 1028.5,8.5 Z M 719.5,17.5 C 720.077,16.2267 720.743,16.2267 721.5,17.5C 721.03,18.463 720.363,18.463 719.5,17.5 Z M 355.5,21.5 C 357.983,21.73 358.483,22.3966 357,23.5C 355.97,23.1639 355.47,22.4972 355.5,21.5 Z M 697.5,30.5 C 699.975,30.7467 699.975,31.4134 697.5,32.5C 696.537,32.0302 696.537,31.3635 697.5,30.5 Z M 880.5,32.5 C 883.797,32.3287 884.131,32.9954 881.5,34.5C 880.702,34.0431 880.369,33.3764 880.5,32.5 Z M 295.5,36.5 C 296.209,35.596 297.209,35.2627 298.5,35.5C 298.649,36.552 298.483,37.552 298,38.5C 297.292,37.6195 296.458,36.9528 295.5,36.5 Z M 827.5,42.5 C 828.376,42.3691 829.043,42.7025 829.5,43.5C 827.192,44.8734 826.525,44.5401 827.5,42.5 Z M 809.5,46.5 C 811.085,47.0024 811.585,48.0024 811,49.5C 809.961,48.7562 809.461,47.7562 809.5,46.5 Z M 922.5,46.5 C 923.766,47.0899 925.099,47.5899 926.5,48C 924.537,48.8442 923.204,48.3442 922.5,46.5 Z M 607.5,47.5 C 609.337,47.6395 609.67,48.3061 608.5,49.5C 607.702,49.0431 607.369,48.3764 607.5,47.5 Z M 826.5,48.5 C 827.386,47.2241 828.386,47.2241 829.5,48.5C 828.575,49.5624 827.575,49.5624 826.5,48.5 Z M 843.5,48.5 C 845.337,48.6395 845.67,49.3061 844.5,50.5C 843.702,50.0431 843.369,49.3764 843.5,48.5 Z M 875.5,48.5 C 877.337,48.6395 877.67,49.3061 876.5,50.5C 875.702,50.0431 875.369,49.3764 875.5,48.5 Z M 916.5,48.5 C 920.133,48.443 920.3,49.443 917,51.5C 916.517,50.552 916.351,49.552 916.5,48.5 Z M 258.5,51.5 C 259.451,52.9187 259.784,54.5853 259.5,56.5C 254.787,56.1307 254.454,54.464 258.5,51.5 Z M 819.5,52.5 C 823.339,52.6121 823.339,53.2787 819.5,54.5C 818.537,54.0302 818.537,53.3635 819.5,52.5 Z M 827.5,53.5 C 828.077,52.2267 828.743,52.2267 829.5,53.5C 829.03,54.463 828.363,54.463 827.5,53.5 Z M 349.5,91.5 C 346.56,96.322 345.227,95.322 345.5,88.5C 344.167,88.5 342.833,88.5 341.5,88.5C 341.5,90.5 341.5,92.5 341.5,94.5C 330.495,94.3335 319.495,94.5002 308.5,95C 305.313,95.0006 302.48,95.8339 300,97.5C 299.368,91.1677 299.535,89.8344 300.5,93.5C 306.588,92.9895 306.922,91.3229 301.5,88.5C 300.614,87.675 300.281,86.675 300.5,85.5C 303.5,85.8333 304.833,84.5 304.5,81.5C 308.318,80.0126 312.152,78.3459 316,76.5C 319.931,77.5927 321.931,75.9261 322,71.5C 322.741,70.3595 323.575,70.3595 324.5,71.5C 325.833,70.5 325.833,69.5 324.5,68.5C 322.867,69.7442 321.867,69.2442 321.5,67C 322.058,63.4864 322.724,59.9864 323.5,56.5C 324.874,57.7113 326.374,58.7113 328,59.5C 328.945,59.0946 329.612,58.428 330,57.5C 332.009,59.0105 333.842,60.6771 335.5,62.5C 337.283,60.9775 337.949,58.9775 337.5,56.5C 338.5,56.5 339.5,56.5 340.5,56.5C 340.5,58.5 340.5,60.5 340.5,62.5C 341.833,62.5 343.167,62.5 344.5,62.5C 344,66.4933 345.5,68.16 349,67.5C 349.507,52.8719 350.34,52.8719 351.5,67.5C 349.907,73.6321 350.24,79.6321 352.5,85.5C 353.167,86.8333 353.833,86.8333 354.5,85.5C 356.024,83.2076 355.691,81.2076 353.5,79.5C 354.109,76.1634 355.276,75.8301 357,78.5C 357.483,77.552 357.649,76.552 357.5,75.5C 360.711,75.988 363.544,75.3213 366,73.5C 366.497,75.8098 366.663,78.1432 366.5,80.5C 363.753,80.1866 361.086,80.52 358.5,81.5C 359.313,82.8139 360.313,83.9805 361.5,85C 359.077,86.5707 357.744,88.7374 357.5,91.5C 354.412,91.6386 351.745,92.6386 349.5,94.5C 349.5,93.5 349.5,92.5 349.5,91.5 Z M 353.5,56.5 C 355.272,59.1924 356.272,62.3591 356.5,66C 356.138,67.2247 355.638,68.3914 355,69.5C 353.71,65.2695 353.21,60.9362 353.5,56.5 Z M 833.5,56.5 C 834.693,56.9704 835.36,57.9704 835.5,59.5C 835.333,60.5 835.167,61.5 835,62.5C 833.872,60.6547 833.372,58.6547 833.5,56.5 Z M 257.5,58.5 C 259.048,58.8212 259.715,59.8212 259.5,61.5C 262.005,61.0198 264.338,60.0198 266.5,58.5C 267.429,59.6888 267.762,61.0222 267.5,62.5C 260.943,63.3945 260.943,64.3945 267.5,65.5C 264.914,66.48 262.247,66.8134 259.5,66.5C 259.719,67.675 259.386,68.675 258.5,69.5C 256.415,67.3598 256.415,65.5264 258.5,64C 256.5,63 254.5,62 252.5,61C 254.315,60.2432 255.981,59.4098 257.5,58.5 Z M 207.5,67.5 C 209.337,67.6395 209.67,68.3061 208.5,69.5C 207.702,69.0431 207.369,68.3764 207.5,67.5 Z M 243.5,93.5 C 241.156,93.3252 239.489,92.1585 238.5,90C 239.444,87.2809 239.777,84.4475 239.5,81.5C 243.37,82.799 247.37,83.4657 251.5,83.5C 251.201,85.604 251.534,87.604 252.5,89.5C 254.024,88.4729 254.691,86.9729 254.5,85C 253.829,82.1031 252.829,79.7698 251.5,78C 248.833,77.6667 246.167,77.3333 243.5,77C 246.894,76.2483 250.227,76.4149 253.5,77.5C 255.169,76.3291 256.669,74.9958 258,73.5C 259.645,76.0386 261.145,76.0386 262.5,73.5C 260.711,72.377 260.378,71.0436 261.5,69.5C 263.272,70.2697 264.272,71.6031 264.5,73.5C 262.453,76.6394 260.786,79.9727 259.5,83.5C 267.42,84.6349 271.92,81.3016 273,73.5C 275.306,78.6126 277.139,83.946 278.5,89.5C 279.5,84.1667 280.5,78.8333 281.5,73.5C 282.189,78.7176 282.856,83.8843 283.5,89C 282.167,90 280.833,91 279.5,92C 281.98,92.9154 282.647,94.4154 281.5,96.5C 282.325,97.3857 283.325,97.719 284.5,97.5C 284.833,100.167 285.167,102.833 285.5,105.5C 286.5,105.5 287.5,105.5 288.5,105.5C 288.5,102.833 288.5,100.167 288.5,97.5C 292.392,98.7383 296.392,99.905 300.5,101C 297.851,101.452 295.351,102.286 293,103.5C 292.312,98.3976 291.479,98.5642 290.5,104C 290.905,104.945 291.572,105.612 292.5,106C 289.733,107.161 287.067,108.327 284.5,109.5C 284.5,107.5 284.5,105.5 284.5,103.5C 280.314,103.456 276.147,103.123 272,102.5C 270.019,102.629 268.353,103.296 267,104.5C 265.312,102.955 263.312,101.955 261,101.5C 260.552,99.5911 261.385,98.4244 263.5,98C 268.533,97.829 273.533,97.329 278.5,96.5C 277.975,95.8076 277.308,95.3076 276.5,95C 267.471,94.2214 258.471,94.3881 249.5,95.5C 247.283,95.1217 245.283,94.455 243.5,93.5 Z M 1082.5,78.5 C 1081.22,79.968 1079.55,80.6347 1077.5,80.5C 1077.5,78.1667 1077.5,75.8333 1077.5,73.5C 1081.58,73.3436 1085.58,73.8436 1089.5,75C 1087.1,75.711 1084.77,75.5443 1082.5,74.5C 1081.37,75.8084 1081.37,77.1417 1082.5,78.5 Z M 1082.5,78.5 C 1085.07,78.1485 1087.41,78.6485 1089.5,80C 1087.01,80.0683 1084.67,79.5683 1082.5,78.5 Z M 364.5,83.5 C 365.97,86.5572 365.303,87.0572 362.5,85C 363.416,84.7216 364.082,84.2216 364.5,83.5 Z M 720.5,85.5 C 721.776,86.3864 721.776,87.3864 720.5,88.5C 719.913,87.7666 719.913,86.7666 720.5,85.5 Z M 782.5,107.5 C 783.5,107.5 784.5,107.5 785.5,107.5C 785.5,108.833 785.5,110.167 785.5,111.5C 783.876,111.36 782.71,112.027 782,113.5C 778.667,112.833 775.333,112.167 772,111.5C 770.461,112.546 770.295,113.879 771.5,115.5C 771,117.5 770.5,119.5 770,121.5C 768.293,116.005 768.127,110.505 769.5,105C 766.769,102.284 766.936,99.7837 770,97.5C 770.915,98.3279 771.581,99.3279 772,100.5C 774.317,97.1836 776.983,94.1836 780,91.5C 780.495,93.4727 780.662,95.4727 780.5,97.5C 781.833,97.5 783.167,97.5 784.5,97.5C 784.768,101.083 784.101,104.416 782.5,107.5 Z M 256.5,97.5 C 257.748,98.3339 258.415,99.6672 258.5,101.5C 258.167,102.833 257.833,104.167 257.5,105.5C 256.52,102.914 256.187,100.247 256.5,97.5 Z M 303.5,97.5 C 305.379,97.3932 305.712,97.8932 304.5,99C 303.167,99.6667 301.833,99.6667 300.5,99C 301.737,98.7679 302.737,98.2679 303.5,97.5 Z M 308.5,97.5 C 318.506,97.3335 328.506,97.5002 338.5,98C 337.167,100 335.5,101.667 333.5,103C 325.5,103.667 317.5,103.667 309.5,103C 308.377,101.956 307.044,101.29 305.5,101C 306.448,100.517 307.448,100.351 308.5,100.5C 308.5,99.5 308.5,98.5 308.5,97.5 Z M 243.5,98.5 C 245.765,99.9402 245.932,101.607 244,103.5C 243.506,101.866 243.34,100.199 243.5,98.5 Z M 248.5,98.5 C 250.561,99.7514 250.894,101.418 249.5,103.5C 246.14,102.209 245.806,100.543 248.5,98.5 Z M 348.5,98.5 C 349.451,99.9187 349.784,101.585 349.5,103.5C 346.593,103.425 343.927,102.591 341.5,101C 344.104,100.61 346.438,99.7763 348.5,98.5 Z M 639.5,98.5 C 642.148,100.128 642.148,101.794 639.5,103.5C 637.07,101.963 637.07,100.296 639.5,98.5 Z M 763.5,98.5 C 765.582,99.5849 765.916,101.085 764.5,103C 761.59,103.446 758.923,102.779 756.5,101C 759.104,100.61 761.438,99.7763 763.5,98.5 Z M 623.5,99.5 C 624.693,99.9704 625.36,100.97 625.5,102.5C 625.333,103.5 625.167,104.5 625,105.5C 623.082,104.458 621.249,103.292 619.5,102C 620.858,101.066 622.192,100.232 623.5,99.5 Z M 634.5,99.5 C 636.76,100.238 636.927,101.238 635,102.5C 634.517,101.552 634.351,100.552 634.5,99.5 Z M 707.5,101.5 C 709.332,102.14 709.665,103.14 708.5,104.5C 707.614,103.675 707.281,102.675 707.5,101.5 Z M 306.5,104.5 C 308.048,104.821 308.715,105.821 308.5,107.5C 305.603,107.875 302.937,107.375 300.5,106C 302.708,105.809 304.708,105.309 306.5,104.5 Z M 311.5,106.5 C 312.946,105.387 314.613,105.22 316.5,106C 314.861,107.519 313.194,107.686 311.5,106.5 Z M 319.5,106.5 C 321.265,105.539 323.265,105.205 325.5,105.5C 325.884,107.665 325.217,109.332 323.5,110.5C 322.16,109.133 320.827,107.8 319.5,106.5 Z M 329.5,105.5 C 331.604,105.201 333.604,105.534 335.5,106.5C 334.311,107.429 332.978,107.762 331.5,107.5C 331.762,108.978 331.429,110.311 330.5,111.5C 329.534,109.604 329.201,107.604 329.5,105.5 Z M 585.5,105.5 C 586.675,105.281 587.675,105.614 588.5,106.5C 586.948,107.798 585.948,107.465 585.5,105.5 Z M 638.5,105.5 C 639.5,105.5 640.5,105.5 641.5,105.5C 641.5,108.167 641.5,110.833 641.5,113.5C 640.5,113.5 639.5,113.5 638.5,113.5C 638.5,110.833 638.5,108.167 638.5,105.5 Z M 764.5,107.5 C 762.067,107.786 762.067,108.452 764.5,109.5C 764.5,110.5 764.5,111.5 764.5,112.5C 761.499,114.004 758.833,113.504 756.5,111C 757.833,110 759.167,109 760.5,108C 755.427,106.339 755.427,105.506 760.5,105.5C 762.333,105.585 763.666,106.252 764.5,107.5 Z M 292.5,108.5 C 297.833,108.833 303.167,109.167 308.5,109.5C 308.5,110.5 308.5,111.5 308.5,112.5C 302.786,111.738 297.12,111.738 291.5,112.5C 290.5,112.167 289.833,111.5 289.5,110.5C 290.602,109.824 291.602,109.158 292.5,108.5 Z M 311.5,109.5 C 313.288,109.215 314.955,109.548 316.5,110.5C 314.203,113.29 312.536,112.956 311.5,109.5 Z M 984.5,143.5 C 976.324,144.167 967.99,144.833 959.5,145.5C 974.868,146.597 990.201,147.097 1005.5,147C 1004.5,149.333 1002.83,151 1000.5,152C 989.523,151.715 978.523,151.548 967.5,151.5C 967.5,152.5 967.5,153.5 967.5,154.5C 970.755,154.014 973.422,155.014 975.5,157.5C 976.386,156.675 976.719,155.675 976.5,154.5C 981.875,154.172 987.208,154.505 992.5,155.5C 991.768,159.349 990.602,163.016 989,166.5C 988.333,167.833 987.667,167.833 987,166.5C 986.506,164.866 986.34,163.199 986.5,161.5C 985.5,161.5 984.5,161.5 983.5,161.5C 983.5,163.167 983.5,164.833 983.5,166.5C 978.067,166.857 972.734,167.857 967.5,169.5C 970.086,170.48 972.753,170.813 975.5,170.5C 975.5,173.167 975.5,175.833 975.5,178.5C 971.554,178.444 967.721,179.111 964,180.5C 962.439,180.397 960.939,180.063 959.5,179.5C 956.867,180.782 956.867,182.116 959.5,183.5C 958.332,186.469 956.999,186.802 955.5,184.5C 956.833,182.833 956.833,181.167 955.5,179.5C 954.349,178.269 953.183,178.269 952,179.5C 951.355,178.354 950.522,177.354 949.5,176.5C 952.634,176.282 955.967,175.949 959.5,175.5C 959.5,174.5 959.5,173.5 959.5,172.5C 956.148,173.553 952.815,173.553 949.5,172.5C 950.025,171.808 950.692,171.308 951.5,171C 947.551,167.622 946.051,163.455 947,158.5C 945.989,157.663 944.822,157.33 943.5,157.5C 943.5,156.5 943.5,155.5 943.5,154.5C 950.755,154.622 958.089,154.289 965.5,153.5C 964.767,150.599 962.933,148.933 960,148.5C 959.517,149.448 959.351,150.448 959.5,151.5C 956.421,151.26 953.421,151.593 950.5,152.5C 949.452,151.617 948.285,150.95 947,150.5C 945.838,151.187 944.672,151.353 943.5,151C 944.52,149.444 945.853,148.278 947.5,147.5C 951.191,146.979 954.857,146.312 958.5,145.5C 957.518,142.904 956.851,140.238 956.5,137.5C 955.325,137.719 954.325,137.386 953.5,136.5C 955.086,133.784 954.753,131.45 952.5,129.5C 951.243,132.844 951.243,136.177 952.5,139.5C 951.902,140.795 951.402,142.128 951,143.5C 948.614,142.237 946.781,140.403 945.5,138C 944.207,137.51 942.873,137.343 941.5,137.5C 941.336,134.813 941.503,132.146 942,129.5C 943.017,131.376 943.851,133.376 944.5,135.5C 947.976,131.356 948.976,126.69 947.5,121.5C 946.264,120.754 944.93,120.421 943.5,120.5C 943.5,119.5 943.5,118.5 943.5,117.5C 946.154,118.342 948.821,118.842 951.5,119C 953.671,117.826 954.671,115.993 954.5,113.5C 953.325,113.719 952.325,113.386 951.5,112.5C 954.167,111.167 956.833,111.167 959.5,112.5C 960.933,115.333 961.6,118.333 961.5,121.5C 962.5,121.5 963.5,121.5 964.5,121.5C 964.34,119.801 964.506,118.134 965,116.5C 966.252,122.822 969.752,127.155 975.5,129.5C 975.33,130.822 975.663,131.989 976.5,133C 979.099,133.769 981.599,133.602 984,132.5C 984.251,134.433 984.751,136.266 985.5,138C 990.489,138.749 995.489,139.415 1000.5,140C 997.854,140.497 995.187,140.664 992.5,140.5C 992.5,141.5 992.5,142.5 992.5,143.5C 989.833,143.5 987.167,143.5 984.5,143.5 Z M 764.5,112.5 C 765.478,112.811 766.145,113.478 766.5,114.5C 765.811,116.444 765.311,118.444 765,120.5C 764.503,117.854 764.336,115.187 764.5,112.5 Z M 295.5,113.5 C 297.167,113.5 298.833,113.5 300.5,113.5C 300.627,116.245 299.46,118.245 297,119.5C 295.681,117.75 295.181,115.75 295.5,113.5 Z M 302.5,114.5 C 304.265,113.539 306.265,113.205 308.5,113.5C 308.662,115.527 308.495,117.527 308,119.5C 305.724,118.238 303.891,116.571 302.5,114.5 Z M 326.5,113.5 C 328.288,113.215 329.955,113.548 331.5,114.5C 329.432,120.89 327.765,120.556 326.5,113.5 Z M 772.5,113.5 C 779.446,113.309 779.613,115.309 773,119.5C 772.505,117.527 772.338,115.527 772.5,113.5 Z M 948.5,115.5 C 949.675,115.281 950.675,115.614 951.5,116.5C 949.948,117.798 948.948,117.465 948.5,115.5 Z M 591.5,117.5 C 593.337,117.639 593.67,118.306 592.5,119.5C 591.702,119.043 591.369,118.376 591.5,117.5 Z M 361.5,121.5 C 363.225,121.843 363.725,122.843 363,124.5C 361.961,123.756 361.461,122.756 361.5,121.5 Z M 541.5,125.5 C 542.249,126.531 542.915,127.698 543.5,129C 543.167,129.167 542.833,129.333 542.5,129.5C 541.571,128.311 541.238,126.978 541.5,125.5 Z M 841.5,127.5 C 842.773,128.077 842.773,128.743 841.5,129.5C 840.537,129.03 840.537,128.363 841.5,127.5 Z M 815.5,135.5 C 817.983,135.73 818.483,136.397 817,137.5C 815.97,137.164 815.47,136.497 815.5,135.5 Z M 890.5,138.5 C 891.5,138.5 892.5,138.5 893.5,138.5C 893.5,140.833 893.5,143.167 893.5,145.5C 892.5,145.5 891.5,145.5 890.5,145.5C 890.5,143.167 890.5,140.833 890.5,138.5 Z M 890.5,148.5 C 891.833,148.5 893.167,148.5 894.5,148.5C 894.5,149.5 894.5,150.5 894.5,151.5C 893.127,151.657 891.793,151.49 890.5,151C 889.402,150.23 889.402,149.397 890.5,148.5 Z M 362.5,150.5 C 364.332,151.14 364.665,152.14 363.5,153.5C 362.614,152.675 362.281,151.675 362.5,150.5 Z M 465.5,162.5 C 470.208,162.008 470.708,163.341 467,166.5C 466.209,165.255 465.709,163.922 465.5,162.5 Z M 338.5,166.5 C 341.797,166.329 342.131,166.995 339.5,168.5C 338.702,168.043 338.369,167.376 338.5,166.5 Z M 346.5,170.5 C 348.973,170.947 349.14,171.947 347,173.5C 346.517,172.552 346.351,171.552 346.5,170.5 Z M 476.5,170.5 C 477.239,170.369 477.906,170.536 478.5,171C 477.118,175.705 476.451,175.539 476.5,170.5 Z M 951.5,182.5 C 953.76,183.238 953.927,184.238 952,185.5C 951.517,184.552 951.351,183.552 951.5,182.5 Z M 392.5,187.5 C 393.077,186.227 393.743,186.227 394.5,187.5C 394.03,188.463 393.363,188.463 392.5,187.5 Z M 373.5,188.5 C 376.001,188.511 376.168,189.178 374,190.5C 373.536,189.906 373.369,189.239 373.5,188.5 Z M 954.5,196.5 C 956.288,196.215 957.955,196.548 959.5,197.5C 957.472,199.941 955.138,200.108 952.5,198C 953.416,197.722 954.082,197.222 954.5,196.5 Z M 340.5,203.5 C 342.829,205.049 345.496,205.883 348.5,206C 346.19,206.497 343.857,206.663 341.5,206.5C 341.5,207.5 341.5,208.5 341.5,209.5C 344.833,209.5 348.167,209.5 351.5,209.5C 351.176,206.306 352.342,205.306 355,206.5C 356.274,209.159 357.774,211.659 359.5,214C 357.808,215.401 357.141,217.234 357.5,219.5C 352.162,218.998 346.828,218.831 341.5,219C 340.726,221.405 340.226,223.905 340,226.5C 339.503,223.854 339.336,221.187 339.5,218.5C 337.396,218.799 335.396,218.466 333.5,217.5C 336.086,216.52 338.753,216.187 341.5,216.5C 341.073,212.176 340.739,207.842 340.5,203.5 Z M 459.5,204.5 C 460.077,203.227 460.743,203.227 461.5,204.5C 461.03,205.463 460.363,205.463 459.5,204.5 Z M 359.5,216.5 C 360.601,215.402 361.934,215.235 363.5,216C 362.318,217.768 360.985,217.935 359.5,216.5 Z M 349.5,221.5 C 352.247,221.187 354.914,221.52 357.5,222.5C 356.167,222.833 354.833,223.167 353.5,223.5C 351.667,223.415 350.334,222.748 349.5,221.5 Z M 349.5,224.5 C 353.599,224.858 357.599,224.858 361.5,224.5C 364.189,224.545 365.523,225.879 365.5,228.5C 359.644,228.37 354.31,227.036 349.5,224.5 Z M 346.5,227.5 C 347.5,227.5 348.5,227.5 349.5,227.5C 349.5,230.167 349.5,232.833 349.5,235.5C 348.5,235.5 347.5,235.5 346.5,235.5C 346.5,232.833 346.5,230.167 346.5,227.5 Z M 357.5,233.5 C 360.167,233.5 362.833,233.5 365.5,233.5C 365.5,237.833 365.5,242.167 365.5,246.5C 363.255,244.639 360.588,243.639 357.5,243.5C 357.5,240.167 357.5,236.833 357.5,233.5 Z M 354.5,239.5 C 355.782,240.708 355.782,242.042 354.5,243.5C 353.708,242.3 353.708,240.967 354.5,239.5 Z M 354.5,244.5 C 356.721,246.33 356.888,248.33 355,250.5C 354.167,249.667 353.333,248.833 352.5,248C 353.823,247.184 354.489,246.017 354.5,244.5 Z M 1258.5,247.5 C 1260.09,248.474 1261.09,249.974 1261.5,252C 1260.66,253.011 1260.33,254.178 1260.5,255.5C 1254.17,255.996 1253.84,254.829 1259.5,252C 1255.94,251.273 1255.6,249.773 1258.5,247.5 Z M 1281.5,252.5 C 1283.08,253.002 1283.58,254.002 1283,255.5C 1281.96,254.756 1281.46,253.756 1281.5,252.5 Z M 1266.5,256.5 C 1270.58,258.117 1274.92,258.95 1279.5,259C 1274.47,259.829 1269.47,259.662 1264.5,258.5C 1265.24,257.818 1265.91,257.151 1266.5,256.5 Z M 1285.5,257.5 C 1287.92,257.192 1290.26,257.526 1292.5,258.5C 1291.33,258.833 1290.17,259.167 1289,259.5C 1287.32,259.392 1286.15,258.725 1285.5,257.5 Z M 1241.5,260.5 C 1242.61,262.599 1243.28,264.933 1243.5,267.5C 1242.5,267.5 1241.5,267.5 1240.5,267.5C 1240.67,265.139 1241.01,262.806 1241.5,260.5 Z M 2.5,265.5 C 4.33702,265.639 4.67036,266.306 3.5,267.5C 2.70245,267.043 2.36912,266.376 2.5,265.5 Z M 2.5,270.5 C 9.13113,274.37 8.7978,276.037 1.5,275.5C 1.62867,273.784 1.962,272.117 2.5,270.5 Z M 1239.5,284.5 C 1240.83,284.5 1242.17,284.5 1243.5,284.5C 1243.5,287.167 1243.5,289.833 1243.5,292.5C 1242.17,292.5 1240.83,292.5 1239.5,292.5C 1239.5,289.833 1239.5,287.167 1239.5,284.5 Z M 1244.5,296.5 C 1245.68,296.281 1246.68,296.614 1247.5,297.5C 1245.95,298.798 1244.95,298.465 1244.5,296.5 Z M 1255.5,300.5 C 1256.5,300.5 1257.5,300.5 1258.5,300.5C 1257.5,307.167 1256.5,307.167 1255.5,300.5 Z M 1281.5,309.5 C 1284.65,310.755 1284.98,312.421 1282.5,314.5C 1280.25,313.286 1279.91,311.619 1281.5,309.5 Z M 1273.5,310.5 C 1277.14,309.737 1278.64,311.07 1278,314.5C 1276.64,313.62 1275.14,313.286 1273.5,313.5C 1273.5,312.5 1273.5,311.5 1273.5,310.5 Z M 18.5,317.5 C 21.9067,317.125 22.4067,318.125 20,320.5C 18.9614,319.756 18.4614,318.756 18.5,317.5 Z M 1285.5,317.5 C 1288.25,317.187 1290.91,317.52 1293.5,318.5C 1292.17,318.833 1290.83,319.167 1289.5,319.5C 1287.67,319.415 1286.33,318.748 1285.5,317.5 Z M 1271.5,325.5 C 1272.5,325.5 1273.5,325.5 1274.5,325.5C 1274.5,327.833 1274.5,330.167 1274.5,332.5C 1273.5,332.5 1272.5,332.5 1271.5,332.5C 1271.5,330.167 1271.5,327.833 1271.5,325.5 Z M 1258.5,335.5 C 1257.53,335.013 1256.53,334.513 1255.5,334C 1257.16,333.275 1258.16,333.775 1258.5,335.5 Z M 1267.5,341.5 C 1265.87,337.524 1264.03,337.524 1262,341.5C 1261.15,338.388 1259.98,338.054 1258.5,340.5C 1259.17,341.5 1259.83,342.5 1260.5,343.5C 1258.73,345.458 1258.06,347.458 1258.5,349.5C 1256.31,347.792 1255.98,345.792 1257.5,343.5C 1256.75,341.964 1255.75,340.631 1254.5,339.5C 1255.73,338.719 1257.06,338.219 1258.5,338C 1259.6,337.23 1259.6,336.397 1258.5,335.5C 1260.95,335.679 1263.12,335.013 1265,333.5C 1269.86,334.824 1273.02,337.824 1274.5,342.5C 1274.47,344.824 1273.47,345.99 1271.5,346C 1270.42,344.141 1269.09,342.641 1267.5,341.5 Z M 1267.5,341.5 C 1267.76,345.862 1267.92,350.195 1268,354.5C 1266.3,353.636 1265.14,352.303 1264.5,350.5C 1264.77,347.039 1265.77,344.039 1267.5,341.5 Z M 1252.5,345.5 C 1253.29,345.783 1253.96,346.283 1254.5,347C 1253.18,347.528 1252.52,347.028 1252.5,345.5 Z M 51.5,349.5 C 53.4646,349.948 53.7979,350.948 52.5,352.5C 51.6143,351.675 51.281,350.675 51.5,349.5 Z M 2.5,385.5 C 4.94966,385.874 5.94966,387.374 5.5,390C 5.69064,391.973 5.02398,393.473 3.5,394.5C 1.21501,391.822 0.881678,388.822 2.5,385.5 Z M 1183.5,401.5 C 1184.77,402.077 1184.77,402.743 1183.5,403.5C 1182.54,403.03 1182.54,402.363 1183.5,401.5 Z M 1170.5,409.5 C 1171.77,410.077 1171.77,410.743 1170.5,411.5C 1169.54,411.03 1169.54,410.363 1170.5,409.5 Z M 1298.5,411.5 C 1299.22,411.918 1299.72,412.584 1300,413.5C 1300.67,416.5 1300.67,419.5 1300,422.5C 1299.33,411.833 1298.67,411.833 1298,422.5C 1297.32,418.779 1297.49,415.112 1298.5,411.5 Z M 159.5,414.5 C 161.225,414.843 161.725,415.843 161,417.5C 159.961,416.756 159.461,415.756 159.5,414.5 Z M 159.5,422.5 C 160.077,421.227 160.743,421.227 161.5,422.5C 161.03,423.463 160.363,423.463 159.5,422.5 Z M 1285.5,461.5 C 1287.34,461.639 1287.67,462.306 1286.5,463.5C 1285.7,463.043 1285.37,462.376 1285.5,461.5 Z M 75.5,464.5 C 76.0768,463.227 76.7435,463.227 77.5,464.5C 77.0302,465.463 76.3635,465.463 75.5,464.5 Z M 1064.5,463.5 C 1065.16,464.398 1065.82,465.398 1066.5,466.5C 1069,467.58 1071.33,468.914 1073.5,470.5C 1068.87,471.662 1064.2,471.828 1059.5,471C 1059.17,470.667 1058.83,470.333 1058.5,470C 1060.71,467.963 1062.71,465.797 1064.5,463.5 Z M 1192.5,466.5 C 1195.36,467.132 1197.7,468.632 1199.5,471C 1196.77,471.818 1194.11,471.652 1191.5,470.5C 1192.25,469.264 1192.58,467.93 1192.5,466.5 Z M 84.5,469.5 C 85.7733,470.077 85.7733,470.743 84.5,471.5C 83.537,471.03 83.537,470.363 84.5,469.5 Z M 189.5,469.5 C 191.337,469.639 191.67,470.306 190.5,471.5C 189.702,471.043 189.369,470.376 189.5,469.5 Z M 114.5,471.5 C 116.337,471.639 116.67,472.306 115.5,473.5C 114.702,473.043 114.369,472.376 114.5,471.5 Z M 118.5,471.5 C 120.337,471.639 120.67,472.306 119.5,473.5C 118.702,473.043 118.369,472.376 118.5,471.5 Z M 1057.5,472.5 C 1062.87,472.172 1068.21,472.505 1073.5,473.5C 1068.3,474.482 1068.3,475.648 1073.5,477C 1072.67,477.915 1071.67,478.581 1070.5,479C 1071.31,479.308 1071.97,479.808 1072.5,480.5C 1067.17,481.167 1061.83,481.833 1056.5,482.5C 1056.71,483.086 1057.04,483.586 1057.5,484C 1062.9,483.966 1068.23,484.133 1073.5,484.5C 1073.5,482.833 1073.5,481.167 1073.5,479.5C 1074.5,479.5 1075.5,479.5 1076.5,479.5C 1076.5,482.167 1076.5,484.833 1076.5,487.5C 1069.99,487.476 1063.33,487.309 1056.5,487C 1053.48,484.736 1052.81,481.903 1054.5,478.5C 1059.09,477.081 1063.75,475.914 1068.5,475C 1064.5,474.667 1060.5,474.333 1056.5,474C 1057.06,473.617 1057.39,473.117 1057.5,472.5 Z M 2.5,476.5 C 4.46455,476.948 4.79789,477.948 3.5,479.5C 2.61432,478.675 2.28099,477.675 2.5,476.5 Z M 60.5,479.5 C 62.2252,479.843 62.7252,480.843 62,482.5C 60.9614,481.756 60.4614,480.756 60.5,479.5 Z M 207.5,480.5 C 208.386,479.224 209.386,479.224 210.5,480.5C 209.767,481.087 208.767,481.087 207.5,480.5 Z M 204.5,483.5 C 207.247,483.187 209.914,483.52 212.5,484.5C 213.59,485.609 213.59,486.609 212.5,487.5C 209.497,486.915 206.497,486.248 203.5,485.5C 203.863,484.817 204.196,484.15 204.5,483.5 Z M 217.5,483.5 C 220.255,484.957 223.255,485.957 226.5,486.5C 223.167,487.833 219.833,487.833 216.5,486.5C 217.127,485.583 217.461,484.583 217.5,483.5 Z M 3.5,484.5 C 5.21697,487.845 5.88364,491.511 5.5,495.5C 4.16667,495.5 2.83333,495.5 1.5,495.5C 1.24225,491.628 1.90891,487.961 3.5,484.5 Z M 187.5,485.5 C 189.924,485.192 192.257,485.526 194.5,486.5C 191.894,487.652 189.227,487.818 186.5,487C 187.056,486.617 187.389,486.117 187.5,485.5 Z M 200.5,502.5 C 202.279,504.344 204.612,505.01 207.5,504.5C 207.657,503.127 207.49,501.793 207,500.5C 204.966,499.138 202.799,498.138 200.5,497.5C 200.272,485.969 202.105,485.635 206,496.5C 207.375,494.063 207.875,491.397 207.5,488.5C 210.216,488.678 212.883,489.178 215.5,490C 212.821,490.338 210.821,491.671 209.5,494C 210.864,497.443 211.531,497.276 211.5,493.5C 212.833,493.5 214.167,493.5 215.5,493.5C 215.54,496.881 215.207,500.214 214.5,503.5C 213.5,503.5 212.5,503.5 211.5,503.5C 211.5,505.5 211.5,507.5 211.5,509.5C 208.833,509.5 206.167,509.5 203.5,509.5C 203.688,507.897 203.188,506.563 202,505.5C 201.503,507.81 201.337,510.143 201.5,512.5C 205.226,512.177 208.893,512.511 212.5,513.5C 211.052,514.354 209.719,515.354 208.5,516.5C 206.642,512.71 204.975,512.71 203.5,516.5C 200.914,517.48 198.247,517.813 195.5,517.5C 195.5,515.833 195.5,514.167 195.5,512.5C 196.833,512.5 198.167,512.5 199.5,512.5C 199.736,509.774 198.903,507.441 197,505.5C 196.436,509.914 194.603,510.581 191.5,507.5C 188.649,504.041 189.316,501.375 193.5,499.5C 195.193,501.027 197.027,502.36 199,503.5C 199.383,502.944 199.883,502.611 200.5,502.5 Z M 1064.5,489.5 C 1066.3,494.942 1065.3,495.609 1061.5,491.5C 1062.6,490.824 1063.6,490.158 1064.5,489.5 Z M 223.5,491.5 C 224.528,495.426 224.194,499.426 222.5,503.5C 221.994,500.625 221.661,497.792 221.5,495C 222.973,494.29 223.64,493.124 223.5,491.5 Z M 1118.5,496.5 C 1120.03,497.844 1121.37,499.511 1122.5,501.5C 1121.24,503.648 1121.24,505.815 1122.5,508C 1122.18,510.544 1120.85,511.544 1118.5,511C 1118.93,506.266 1118.93,501.433 1118.5,496.5 Z M 200.5,497.5 C 200.483,499.028 199.816,499.528 198.5,499C 199.044,498.283 199.711,497.783 200.5,497.5 Z M 200.5,502.5 C 200.783,501.711 201.283,501.044 202,500.5C 202.528,501.816 202.028,502.483 200.5,502.5 Z M 222.5,510.5 C 221.791,511.404 220.791,511.737 219.5,511.5C 219.992,507.71 219.159,507.044 217,509.5C 216.187,507.564 215.687,505.564 215.5,503.5C 217.167,503.5 218.833,503.5 220.5,503.5C 219.99,506.388 220.656,508.721 222.5,510.5 Z M 1129.5,509.5 C 1141.4,509.517 1141.4,510.183 1129.5,511.5C 1128.54,511.03 1128.54,510.363 1129.5,509.5 Z M 1143.5,512.5 C 1144.75,513.334 1145.41,514.667 1145.5,516.5C 1145.17,517.833 1144.83,519.167 1144.5,520.5C 1143.52,517.914 1143.19,515.247 1143.5,512.5 Z M 1131.5,516.5 C 1134.07,516.148 1136.41,516.648 1138.5,518C 1135.43,520.245 1133.1,519.745 1131.5,516.5 Z M 14.5,522.5 C 15.4614,524.265 15.7947,526.265 15.5,528.5C 13.4727,528.662 11.4727,528.495 9.5,528C 10.843,525.768 12.5097,523.934 14.5,522.5 Z M 81.5,529.5 C 83.924,529.192 86.2573,529.526 88.5,530.5C 87.3333,530.833 86.1667,531.167 85,531.5C 83.3189,531.392 82.1522,530.725 81.5,529.5 Z M 95.5,536.5 C 94.9223,540.974 94.4223,545.307 94,549.5C 93.6667,546.5 93.3333,543.5 93,540.5C 92.586,540.043 92.086,539.709 91.5,539.5C 90.696,545.222 89.696,550.889 88.5,556.5C 85.4816,556.335 82.4816,556.502 79.5,557C 78.0091,559.022 78.3424,560.688 80.5,562C 75.1667,562.667 69.8333,562.667 64.5,562C 66.7148,561.83 68.7148,561.163 70.5,560C 69.1753,550.623 68.0086,550.456 67,559.5C 65.6485,557.406 65.1485,555.073 65.5,552.5C 63.712,552.215 62.0453,552.548 60.5,553.5C 61.3202,555.111 62.6536,555.778 64.5,555.5C 64.5,556.5 64.5,557.5 64.5,558.5C 62.2546,556.639 59.5879,555.639 56.5,555.5C 56.6495,556.552 56.4828,557.552 56,558.5C 53.6184,556.741 51.4517,554.741 49.5,552.5C 48.5481,554.045 48.2148,555.712 48.5,557.5C 47.5,557.5 46.5,557.5 45.5,557.5C 45.67,556.178 45.3366,555.011 44.5,554C 46.3444,551.196 47.0111,548.03 46.5,544.5C 48.8333,544.5 51.1667,544.5 53.5,544.5C 53.927,541.212 53.2603,538.212 51.5,535.5C 54.7034,530.029 56.3701,530.362 56.5,536.5C 59.0109,535.24 61.3443,533.573 63.5,531.5C 66.9769,533.161 70.1436,532.828 73,530.5C 74.7172,531.988 75.8839,533.821 76.5,536C 78.1341,536.494 79.8008,536.66 81.5,536.5C 81.5,535.5 81.5,534.5 81.5,533.5C 84.4475,533.777 87.2809,533.444 90,532.5C 90.49,533.793 90.6567,535.127 90.5,536.5C 92.1667,536.5 93.8333,536.5 95.5,536.5 Z M 95.5,536.5 C 95.3433,535.127 95.51,533.793 96,532.5C 96.8996,533.77 98.0663,534.77 99.5,535.5C 98.3112,536.429 96.9778,536.762 95.5,536.5 Z M 109.5,536.5 C 110.5,536.5 111.5,536.5 112.5,536.5C 112.5,539.167 112.5,541.833 112.5,544.5C 111.5,544.5 110.5,544.5 109.5,544.5C 109.5,541.833 109.5,539.167 109.5,536.5 Z M 16.5,551.5 C 20.0289,552.03 20.3622,553.363 17.5,555.5C 16.5713,554.311 16.238,552.978 16.5,551.5 Z M 1176.5,563.5 C 1176.52,561.857 1175.85,560.524 1174.5,559.5C 1176.23,557.766 1177.57,555.766 1178.5,553.5C 1179.39,554.325 1179.72,555.325 1179.5,556.5C 1182.2,556.534 1184.7,555.867 1187,554.5C 1187.67,556.167 1187.67,557.833 1187,559.5C 1184.37,557.84 1181.53,557.34 1178.5,558C 1177.66,559.011 1177.33,560.178 1177.5,561.5C 1181.17,561.5 1184.83,561.5 1188.5,561.5C 1188.81,563.924 1188.47,566.257 1187.5,568.5C 1185.24,567.579 1184.24,565.912 1184.5,563.5C 1181.83,562.167 1179.17,562.167 1176.5,563.5 Z M 1220.5,562.5 C 1217.83,562.5 1215.17,562.5 1212.5,562.5C 1213.21,561.596 1214.21,561.263 1215.5,561.5C 1215.93,558.834 1216.43,556.168 1217,553.5C 1217.49,556.828 1218.66,559.828 1220.5,562.5 Z M 1211.5,557.5 C 1212.04,557.56 1212.38,557.893 1212.5,558.5C 1206.86,559.663 1201.2,559.83 1195.5,559C 1201.02,558.827 1206.35,558.327 1211.5,557.5 Z M 8.5,562.5 C 14.7465,560.343 15.7465,561.676 11.5,566.5C 10.4793,565.099 9.47934,563.765 8.5,562.5 Z M 124.5,561.5 C 126.337,561.639 126.67,562.306 125.5,563.5C 124.702,563.043 124.369,562.376 124.5,561.5 Z M 1203.5,569.5 C 1200.15,569.665 1196.82,569.498 1193.5,569C 1192.13,566.699 1191.47,564.199 1191.5,561.5C 1195.85,561.334 1200.18,561.501 1204.5,562C 1201.65,562.269 1198.98,563.103 1196.5,564.5C 1195.61,565.325 1195.28,566.325 1195.5,567.5C 1198.31,567.429 1200.98,566.762 1203.5,565.5C 1204.17,565.667 1204.83,565.833 1205.5,566C 1204.18,566.816 1203.51,567.983 1203.5,569.5 Z M 1212.5,562.5 C 1209.52,566.829 1208.52,566.496 1209.5,561.5C 1210.42,562.127 1211.42,562.461 1212.5,562.5 Z M 1220.5,562.5 C 1223.11,561.565 1225.78,561.398 1228.5,562C 1225.1,561.734 1223.43,563.234 1223.5,566.5C 1222.5,566.5 1221.5,566.5 1220.5,566.5C 1220.5,565.167 1220.5,563.833 1220.5,562.5 Z M 64.5,568.5 C 66.288,568.215 67.9547,568.548 69.5,569.5C 66.539,574.422 65.039,579.755 65,585.5C 64.5026,582.854 64.3359,580.187 64.5,577.5C 61.8333,577.5 59.1667,577.5 56.5,577.5C 56.5,576.167 56.5,574.833 56.5,573.5C 59.5,573.833 60.8333,572.5 60.5,569.5C 62.099,569.768 63.4324,569.434 64.5,568.5 Z M 1203.5,569.5 C 1205.43,571.601 1206.09,573.934 1205.5,576.5C 1203.83,574.49 1203.16,572.157 1203.5,569.5 Z M 68.5,577.5 C 69.7479,578.334 70.4146,579.667 70.5,581.5C 70.3333,582.833 70.1667,584.167 70,585.5C 68.6253,583.063 68.1253,580.397 68.5,577.5 Z M 1233.5,579.5 C 1235.33,581.437 1235.49,583.437 1234,585.5C 1233.5,583.527 1233.34,581.527 1233.5,579.5 Z M 1.5,602.5 C 2.83333,602.5 4.16667,602.5 5.5,602.5C 5.5,604.833 5.5,607.167 5.5,609.5C 4.16667,609.5 2.83333,609.5 1.5,609.5C 1.5,607.167 1.5,604.833 1.5,602.5 Z M 1289.5,610.5 C 1292,610.511 1292.17,611.178 1290,612.5C 1289.54,611.906 1289.37,611.239 1289.5,610.5 Z M 174.5,732.5 C 177.001,732.511 177.168,733.178 175,734.5C 174.536,733.906 174.369,733.239 174.5,732.5 Z M 1022.5,732.5 C 1023.68,732.281 1024.68,732.614 1025.5,733.5C 1023.64,741.321 1022.64,740.988 1022.5,732.5 Z M 1084.5,748.5 C 1084.66,751.187 1084.5,753.854 1084,756.5C 1081.87,758.091 1080.2,760.091 1079,762.5C 1078.5,760.527 1078.34,758.527 1078.5,756.5C 1079.55,756.649 1080.55,756.483 1081.5,756C 1079.1,755.814 1076.77,755.314 1074.5,754.5C 1073.17,752.5 1071.5,750.833 1069.5,749.5C 1066.95,751.298 1064.45,752.965 1062,754.5C 1061.31,753.975 1060.81,753.308 1060.5,752.5C 1061.56,749.897 1061.73,747.23 1061,744.5C 1059.99,743.663 1058.82,743.33 1057.5,743.5C 1057.5,742.5 1057.5,741.5 1057.5,740.5C 1060.01,739.24 1062.34,737.573 1064.5,735.5C 1065.49,740.516 1065.66,745.516 1065,750.5C 1066.19,746.619 1066.86,742.619 1067,738.5C 1068.91,733.338 1070.74,733.505 1072.5,739C 1070.66,741.804 1069.99,744.97 1070.5,748.5C 1072.17,748.5 1073.83,748.5 1075.5,748.5C 1075.12,746.335 1075.78,744.668 1077.5,743.5C 1079.22,744.668 1079.88,746.335 1079.5,748.5C 1081.17,748.5 1082.83,748.5 1084.5,748.5 Z M 166.5,741.5 C 167.077,740.227 167.743,740.227 168.5,741.5C 168.03,742.463 167.363,742.463 166.5,741.5 Z M 1057.5,749.5 C 1055.5,748.833 1053.5,748.167 1051.5,747.5C 1051.5,745.167 1051.5,742.833 1051.5,740.5C 1052.83,740.5 1054.17,740.5 1055.5,740.5C 1055.09,743.855 1055.76,746.855 1057.5,749.5 Z M 0.5,742.5 C 4.23297,742.734 6.06631,744.734 6,748.5C 6.66667,750.833 6.66667,753.167 6,755.5C 4.33333,763.5 2.66667,763.5 1,755.5C 1.09052,751.102 0.923858,746.769 0.5,742.5 Z M 1087.5,748.5 C 1086.5,748.5 1085.5,748.5 1084.5,748.5C 1084.21,746.712 1084.55,745.045 1085.5,743.5C 1087.22,744.668 1087.88,746.335 1087.5,748.5 Z M 174.5,748.5 C 176.97,749.36 177.137,750.694 175,752.5C 174.51,751.207 174.343,749.873 174.5,748.5 Z M 1087.5,748.5 C 1088.76,749.514 1089.43,751.014 1089.5,753C 1089.33,754.5 1089.17,756 1089,757.5C 1087.61,754.722 1087.11,751.722 1087.5,748.5 Z M 1057.5,749.5 C 1059.77,750.94 1059.93,752.607 1058,754.5C 1057.51,752.866 1057.34,751.199 1057.5,749.5 Z M 150.5,751.5 C 151.773,752.077 151.773,752.743 150.5,753.5C 149.537,753.03 149.537,752.363 150.5,751.5 Z M 1073.5,756.5 C 1074.34,758.487 1075.01,760.654 1075.5,763C 1075.17,763.5 1074.83,764 1074.5,764.5C 1073.52,761.914 1073.19,759.247 1073.5,756.5 Z M 1123.5,757.5 C 1124.08,756.227 1124.74,756.227 1125.5,757.5C 1125.03,758.463 1124.36,758.463 1123.5,757.5 Z M 1084.5,758.5 C 1085.5,758.5 1086.5,758.5 1087.5,758.5C 1087.5,759.833 1087.5,761.167 1087.5,762.5C 1086.5,762.5 1085.5,762.5 1084.5,762.5C 1084.5,761.167 1084.5,759.833 1084.5,758.5 Z M 127.5,764.5 C 128.649,764.791 129.316,765.624 129.5,767C 129.333,767.833 129.167,768.667 129,769.5C 127.991,767.975 127.491,766.308 127.5,764.5 Z M 1217.5,768.5 C 1218.08,767.227 1218.74,767.227 1219.5,768.5C 1219.03,769.463 1218.36,769.463 1217.5,768.5 Z M 113.5,768.5 C 115.337,768.639 115.67,769.306 114.5,770.5C 113.702,770.043 113.369,769.376 113.5,768.5 Z M 119.5,772.5 C 121.337,772.639 121.67,773.306 120.5,774.5C 119.702,774.043 119.369,773.376 119.5,772.5 Z M 1079.5,773.5 C 1080.71,772.218 1082.04,772.218 1083.5,773.5C 1082.44,773.906 1081.11,773.906 1079.5,773.5 Z M 1152.5,778.5 C 1154.34,778.639 1154.67,779.306 1153.5,780.5C 1152.7,780.043 1152.37,779.376 1152.5,778.5 Z M 0.5,781.5 C 2.28841,780.378 4.28841,780.211 6.5,781C 4.59833,782.796 2.59833,782.963 0.5,781.5 Z M 101.5,781.5 C 102.386,780.224 103.386,780.224 104.5,781.5C 103.575,782.562 102.575,782.562 101.5,781.5 Z M 189.5,780.5 C 190.773,781.077 190.773,781.743 189.5,782.5C 188.537,782.03 188.537,781.363 189.5,780.5 Z M 1025.5,780.5 C 1027.34,780.639 1027.67,781.306 1026.5,782.5C 1025.7,782.043 1025.37,781.376 1025.5,780.5 Z M 1225.5,781.5 C 1227.98,781.73 1228.48,782.397 1227,783.5C 1225.97,783.164 1225.47,782.497 1225.5,781.5 Z M 292.5,783.5 C 295.167,783.5 297.833,783.5 300.5,783.5C 300.5,784.5 300.5,785.5 300.5,786.5C 297.833,786.5 295.167,786.5 292.5,786.5C 292.5,785.5 292.5,784.5 292.5,783.5 Z M 0.5,786.5 C 2.28841,785.378 4.28841,785.211 6.5,786C 4.63486,787.8 2.63486,787.966 0.5,786.5 Z M 1272.5,787.5 C 1272.56,786.957 1272.89,786.624 1273.5,786.5C 1275.46,787.848 1275.63,789.181 1274,790.5C 1273.77,789.263 1273.27,788.263 1272.5,787.5 Z M 297.5,789.5 C 298.675,789.281 299.675,789.614 300.5,790.5C 298.948,791.798 297.948,791.465 297.5,789.5 Z M 53.5,797.5 C 54.2389,797.369 54.9056,797.536 55.5,798C 54.1192,804.02 53.4526,803.853 53.5,797.5 Z M 117.5,797.5 C 119.085,798.002 119.585,799.002 119,800.5C 117.961,799.756 117.461,798.756 117.5,797.5 Z M 1102.5,800.5 C 1103.59,800.62 1104.25,801.287 1104.5,802.5C 1104.17,803.167 1103.83,803.833 1103.5,804.5C 1102.57,803.311 1102.24,801.978 1102.5,800.5 Z M 1120.5,810.5 C 1122.97,810.947 1123.14,811.947 1121,813.5C 1120.52,812.552 1120.35,811.552 1120.5,810.5 Z M 118.5,812.5 C 119.386,811.224 120.386,811.224 121.5,812.5C 120.575,813.562 119.575,813.562 118.5,812.5 Z M 19.5,813.5 C 22.0009,813.511 22.1676,814.178 20,815.5C 19.5357,814.906 19.369,814.239 19.5,813.5 Z M 181.5,821.5 C 182.209,820.596 183.209,820.263 184.5,820.5C 184.665,823.518 184.498,826.518 184,829.5C 184.053,826.325 183.22,823.658 181.5,821.5 Z M 279.5,821.5 C 282.001,821.511 282.168,822.178 280,823.5C 279.536,822.906 279.369,822.239 279.5,821.5 Z M 931.5,845.5 C 930.167,845.5 928.833,845.5 927.5,845.5C 927.5,848.167 927.5,850.833 927.5,853.5C 929.441,854.638 929.608,856.304 928,858.5C 925.867,856.862 923.367,856.029 920.5,856C 921.448,855.517 922.448,855.351 923.5,855.5C 924.167,851.5 922.5,849.833 918.5,850.5C 918.5,852.5 918.5,854.5 918.5,856.5C 915.061,856.253 911.728,856.586 908.5,857.5C 914.312,847.843 919.812,837.843 925,827.5C 925.333,827.167 925.667,826.833 926,826.5C 926.483,827.448 926.649,828.448 926.5,829.5C 928.5,829.5 930.5,829.5 932.5,829.5C 932.5,832.167 932.5,834.833 932.5,837.5C 931.167,837.5 929.833,837.5 928.5,837.5C 928.539,840.535 929.539,843.202 931.5,845.5 Z M 1232.5,829.5 C 1234.34,830.204 1234.84,831.537 1234,833.5C 1232.81,832.437 1232.31,831.103 1232.5,829.5 Z M 1236.5,829.5 C 1237.68,829.281 1238.68,829.614 1239.5,830.5C 1237.95,831.798 1236.95,831.465 1236.5,829.5 Z M 112.5,834.5 C 113.613,835.946 113.78,837.613 113,839.5C 112.626,838.584 112.126,837.75 111.5,837C 112.252,836.329 112.586,835.496 112.5,834.5 Z M 303.5,837.5 C 305.973,837.947 306.14,838.947 304,840.5C 303.517,839.552 303.351,838.552 303.5,837.5 Z M 933.5,837.5 C 935.273,838.314 935.773,839.648 935,841.5C 933.812,840.437 933.312,839.103 933.5,837.5 Z M 1241.5,837.5 C 1243.97,838.36 1244.14,839.694 1242,841.5C 1241.51,840.207 1241.34,838.873 1241.5,837.5 Z M 931.5,845.5 C 933.026,846.492 933.693,847.992 933.5,850C 933.167,851.167 932.833,852.333 932.5,853.5C 931.52,850.914 931.187,848.247 931.5,845.5 Z M 9.5,847.5 C 11.9828,847.73 12.4828,848.397 11,849.5C 9.97008,849.164 9.47008,848.497 9.5,847.5 Z M 934.5,857.5 C 935.782,858.708 935.782,860.042 934.5,861.5C 933.374,860.192 933.374,858.858 934.5,857.5 Z M 917.5,864.5 C 918.675,864.281 919.675,864.614 920.5,865.5C 919.147,866.524 918.48,867.857 918.5,869.5C 917.325,869.719 916.325,869.386 915.5,868.5C 916.63,867.378 917.297,866.044 917.5,864.5 Z M 925.5,864.5 C 928.073,864.148 930.406,864.648 932.5,866C 930.728,867.487 928.728,867.82 926.5,867C 925.748,866.329 925.414,865.496 925.5,864.5 Z M 955.5,871.5 C 956.077,870.227 956.743,870.227 957.5,871.5C 957.03,872.463 956.363,872.463 955.5,871.5 Z M 1022.5,871.5 C 1023.08,870.227 1023.74,870.227 1024.5,871.5C 1024.03,872.463 1023.36,872.463 1022.5,871.5 Z M 1281.5,870.5 C 1284,870.511 1284.17,871.178 1282,872.5C 1281.54,871.906 1281.37,871.239 1281.5,870.5 Z M 1298.5,870.5 C 1299.46,872.283 1300.12,874.283 1300.5,876.5C 1299.92,882.501 1299.25,888.501 1298.5,894.5C 1298.5,886.491 1298.5,878.491 1298.5,870.5 Z M 1293.5,871.5 C 1294.22,873.218 1294.89,875.052 1295.5,877C 1295,877.5 1294.5,878 1294,878.5C 1293.5,876.19 1293.34,873.857 1293.5,871.5 Z M 1101.5,872.5 C 1103.85,873.543 1104.02,874.876 1102,876.5C 1101.51,875.207 1101.34,873.873 1101.5,872.5 Z M 108.5,873.5 C 111.001,873.511 111.168,874.178 109,875.5C 108.536,874.906 108.369,874.239 108.5,873.5 Z M 118.5,882.5 C 119.782,883.708 119.782,885.042 118.5,886.5C 117.708,885.3 117.708,883.967 118.5,882.5 Z M 382.5,887.5 C 384.924,887.192 387.257,887.526 389.5,888.5C 378.833,889.833 378.833,891.167 389.5,892.5C 385.812,893.62 382.146,893.453 378.5,892C 377.549,891.282 377.383,890.449 378,889.5C 379.622,888.901 381.122,888.234 382.5,887.5 Z M 1232.5,889.5 C 1234.08,890.002 1234.58,891.002 1234,892.5C 1232.96,891.756 1232.46,890.756 1232.5,889.5 Z M 268.5,907.5 C 265.18,904.929 261.68,904.929 258,907.5C 257.833,908.167 257.667,908.833 257.5,909.5C 258.995,911.17 260.328,913.003 261.5,915C 260.874,915.75 260.374,916.584 260,917.5C 258,916.167 256.333,914.5 255,912.5C 254.887,910.026 253.887,908.026 252,906.5C 251.51,907.793 251.343,909.127 251.5,910.5C 250.167,910.5 248.833,910.5 247.5,910.5C 247.777,907.552 247.444,904.719 246.5,902C 249.682,895.734 251.682,896.067 252.5,903C 253.833,903.667 255.167,903.667 256.5,903C 257.444,900.281 257.777,897.448 257.5,894.5C 260.055,893.587 262.721,892.92 265.5,892.5C 267.167,892.833 268.833,893.167 270.5,893.5C 269.883,898.299 269.216,902.966 268.5,907.5 Z M 272.5,894.5 C 274.082,898.806 274.249,903.14 273,907.5C 272.501,903.179 272.334,898.846 272.5,894.5 Z M 133.5,896.5 C 135.085,897.002 135.585,898.002 135,899.5C 133.961,898.756 133.461,897.756 133.5,896.5 Z M 1039.5,900.5 C 1040.77,901.077 1040.77,901.743 1039.5,902.5C 1038.54,902.03 1038.54,901.363 1039.5,900.5 Z M 235.5,903.5 C 237.337,903.639 237.67,904.306 236.5,905.5C 235.702,905.043 235.369,904.376 235.5,903.5 Z M 241.5,903.5 C 243.337,903.639 243.67,904.306 242.5,905.5C 241.702,905.043 241.369,904.376 241.5,903.5 Z M 997.5,905.5 C 998.573,906.251 998.74,907.251 998,908.5C 996.272,907.648 996.105,906.648 997.5,905.5 Z M 268.5,907.5 C 268.649,908.552 268.483,909.552 268,910.5C 265.595,909.726 263.095,909.226 260.5,909C 263.254,908.728 265.921,908.228 268.5,907.5 Z M 956.5,907.5 C 957.776,908.386 957.776,909.386 956.5,910.5C 955.438,909.575 955.438,908.575 956.5,907.5 Z M 237.5,908.5 C 238.978,908.238 240.311,908.571 241.5,909.5C 240.833,909.833 240.167,910.167 239.5,910.5C 238.287,910.253 237.62,909.586 237.5,908.5 Z M 265.5,912.5 C 264.711,912.217 264.044,911.717 263.5,911C 264.816,910.472 265.483,910.972 265.5,912.5 Z M 2.5,911.5 C 3.75618,911.461 4.75618,911.961 5.5,913C 4.16667,913.667 2.83333,913.667 1.5,913C 2.05596,912.617 2.38929,912.117 2.5,911.5 Z M 1012.5,911.5 C 1014.98,911.73 1015.48,912.397 1014,913.5C 1012.97,913.164 1012.47,912.497 1012.5,911.5 Z M 1287.5,912.5 C 1288.6,911.402 1289.93,911.235 1291.5,912C 1290.32,915.063 1288.99,915.23 1287.5,912.5 Z M 265.5,912.5 C 268.167,914.167 268.167,915.833 265.5,917.5C 265.5,915.833 265.5,914.167 265.5,912.5 Z M 24.5,927.5 C 24.3367,925.143 24.5034,922.81 25,920.5C 25.346,922.218 25.846,923.885 26.5,925.5C 26.1445,926.522 25.4778,927.189 24.5,927.5 Z M 28.5,930.5 C 29.2344,931.878 29.9011,933.378 30.5,935C 30.1667,935.167 29.8333,935.333 29.5,935.5C 28.5481,933.955 28.2148,932.288 28.5,930.5 Z M 876.5,935.5 C 876.281,934.325 876.614,933.325 877.5,932.5C 878.665,933.86 878.332,934.86 876.5,935.5 Z M 1298.5,933.5 C 1299.29,933.783 1299.96,934.283 1300.5,935C 1299.17,936 1299.17,937 1300.5,938C 1299.97,938.692 1299.31,939.192 1298.5,939.5C 1297.31,937.484 1297.31,935.484 1298.5,933.5 Z M 876.5,935.5 C 879.187,937.511 879.02,939.178 876,940.5C 875.22,938.613 875.387,936.946 876.5,935.5 Z M 24.5,940.5 C 26.924,940.192 29.2573,940.526 31.5,941.5C 30.3333,941.833 29.1667,942.167 28,942.5C 26.3189,942.392 25.1522,941.725 24.5,940.5 Z M 1247.5,940.5 C 1249.46,940.948 1249.8,941.948 1248.5,943.5C 1247.61,942.675 1247.28,941.675 1247.5,940.5 Z M 1000.5,941.5 C 1001.68,941.281 1002.68,941.614 1003.5,942.5C 1001.95,943.798 1000.95,943.465 1000.5,941.5 Z M 28.5,943.5 C 30.9725,944.749 31.1391,946.415 29,948.5C 28.5065,946.866 28.3398,945.199 28.5,943.5 Z M 126.5,943.5 C 128.332,944.14 128.665,945.14 127.5,946.5C 126.614,945.675 126.281,944.675 126.5,943.5 Z M 240.5,948.5 C 241.776,949.386 241.776,950.386 240.5,951.5C 239.913,950.767 239.913,949.767 240.5,948.5 Z M 142.5,951.5 C 144.337,951.639 144.67,952.306 143.5,953.5C 142.702,953.043 142.369,952.376 142.5,951.5 Z M 260.5,951.5 C 262.838,957.894 264.838,957.894 266.5,951.5C 267.5,951.5 268.5,951.5 269.5,951.5C 269.5,954.167 269.5,956.833 269.5,959.5C 268.5,959.5 267.5,959.5 266.5,959.5C 265.258,966.008 264.592,966.008 264.5,959.5C 263.167,959.5 261.833,959.5 260.5,959.5C 260.5,956.833 260.5,954.167 260.5,951.5 Z M 996.5,951.5 C 998.344,952.204 998.844,953.537 998,955.5C 997.209,954.255 996.709,952.922 996.5,951.5 Z M 279.5,953.5 C 281.5,954.976 283.167,956.809 284.5,959C 282.216,960.363 282.049,961.863 284,963.5C 284.483,962.552 284.649,961.552 284.5,960.5C 286.833,960.5 289.167,960.5 291.5,960.5C 290.836,962.867 289.503,964.867 287.5,966.5C 289.167,967.833 290.833,969.167 292.5,970.5C 285.907,972.305 279.24,973.638 272.5,974.5C 267.177,973.495 267.177,972.495 272.5,971.5C 275.547,973.157 276.88,972.157 276.5,968.5C 277.833,968.5 279.167,968.5 280.5,968.5C 280.712,964.985 280.712,961.652 280.5,958.5C 277.279,960.613 275.945,963.613 276.5,967.5C 274.774,967.815 273.107,967.981 271.5,968C 272.444,965.281 272.777,962.448 272.5,959.5C 276.352,959.318 278.685,957.318 279.5,953.5 Z M 881.5,957.5 C 882.376,957.369 883.043,957.702 883.5,958.5C 881.192,959.873 880.525,959.54 881.5,957.5 Z M 439.5,959.5 C 441.966,958.366 444.633,958.199 447.5,959C 446.065,961.943 444.398,964.777 442.5,967.5C 442.218,965.013 442.218,962.347 442.5,959.5C 441.5,959.5 440.5,959.5 439.5,959.5 Z M 20.5,961.5 C 22.9725,962.749 23.1391,964.415 21,966.5C 19.2116,964.977 19.0449,963.31 20.5,961.5 Z M 1184.5,965.5 C 1185.68,965.281 1186.68,965.614 1187.5,966.5C 1185.95,967.798 1184.95,967.465 1184.5,965.5 Z M 420.5,971.5 C 422.564,971.762 423.897,972.929 424.5,975C 423.027,975.71 422.36,976.876 422.5,978.5C 425.167,978.5 427.833,978.5 430.5,978.5C 430.5,980.167 430.5,981.833 430.5,983.5C 422.5,983.5 414.5,983.5 406.5,983.5C 406.5,981.833 406.5,980.167 406.5,978.5C 410.333,978.553 413.999,979.053 417.5,980C 418.833,978.333 418.833,976.667 417.5,975C 418.365,973.641 419.365,972.474 420.5,971.5 Z M 429.5,973.5 C 434.941,974.478 436.941,977.811 435.5,983.5C 434.5,983.5 433.5,983.5 432.5,983.5C 432.663,981.143 432.497,978.81 432,976.5C 430.583,975.922 429.75,974.922 429.5,973.5 Z M 66.5,977.5 C 68.4286,977.231 70.0953,977.731 71.5,979C 69.5,979.667 67.5,979.667 65.5,979C 66.056,978.617 66.3893,978.117 66.5,977.5 Z M 51.5,978.5 C 54.6741,978.952 55.0075,979.952 52.5,981.5C 50.4807,980.867 50.1474,979.867 51.5,978.5 Z M 1190.5,978.5 C 1192.46,978.948 1192.8,979.948 1191.5,981.5C 1190.61,980.675 1190.28,979.675 1190.5,978.5 Z M 1233.5,987.5 C 1235.6,989.018 1235.77,990.685 1234,992.5C 1233.51,990.866 1233.34,989.199 1233.5,987.5 Z M 121.5,988.5 C 122.289,988.783 122.956,989.283 123.5,990C 122.184,990.528 121.517,990.028 121.5,988.5 Z M 947.5,990.5 C 949.337,990.639 949.67,991.306 948.5,992.5C 947.702,992.043 947.369,991.376 947.5,990.5 Z M 1135.5,991.5 C 1136.39,990.224 1137.39,990.224 1138.5,991.5C 1137.58,992.562 1136.58,992.562 1135.5,991.5 Z M 264.5,993.5 C 270.653,992.347 276.986,992.18 283.5,993C 277.782,993.211 272.115,993.711 266.5,994.5C 265.817,994.137 265.15,993.804 264.5,993.5 Z M 1298.5,992.5 C 1299.75,993.334 1300.41,994.667 1300.5,996.5C 1300.17,997.833 1299.83,999.167 1299.5,1000.5C 1298.52,997.914 1298.19,995.247 1298.5,992.5 Z"/></g>
<g><path style="opacity:0.005" fill="#000000" d="M 387.5,-0.5 C 388.5,-0.5 389.5,-0.5 390.5,-0.5C 389.754,3.30997 388.754,3.30997 387.5,-0.5 Z"/></g>
<g><path style="opacity:0.006" fill="#000000" d="M 858.5,-0.5 C 860.5,-0.5 862.5,-0.5 864.5,-0.5C 864.167,0.166667 863.833,0.833333 863.5,1.5C 861.597,1.20414 859.93,0.53747 858.5,-0.5 Z"/></g>
<g><path style="opacity:0.008" fill="#000000" d="M 1057.5,-0.5 C 1058.17,-0.5 1058.83,-0.5 1059.5,-0.5C 1058.39,4.62945 1057.72,4.62945 1057.5,-0.5 Z"/></g>
<g><path style="opacity:1" fill="#fdfdfd" d="M -0.5,-0.5 C 0.166667,-0.5 0.833333,-0.5 1.5,-0.5C 3.6467,1.46955 5.98003,3.30288 8.5,5C 77.5213,44.7032 146.021,85.2032 214,126.5C 246.833,174 279.667,221.5 312.5,269C 297.504,269.5 282.504,269.667 267.5,269.5C 269.286,288.413 271.62,307.246 274.5,326C 274.333,327.5 274.167,329 274,330.5C 241.277,284.109 208.943,237.442 177,190.5C 175.127,188.291 172.96,186.458 170.5,185C 140.334,167.085 110.334,148.918 80.5,130.5C 54.8018,89.299 29.3018,47.9657 4,6.5C 2.95086,4.3825 1.45086,2.71583 -0.5,1.5C -0.5,0.833333 -0.5,0.166667 -0.5,-0.5 Z"/></g>
<g><path style="opacity:1" fill="#fdfdfd" d="M 1299.5,-0.5 C 1300.17,-0.5 1300.83,-0.5 1301.5,-0.5C 1301.5,0.166667 1301.5,0.833333 1301.5,1.5C 1299.55,2.71583 1298.05,4.3825 1297,6.5C 1271.7,47.9657 1246.2,89.299 1220.5,130.5C 1190.67,148.918 1160.67,167.085 1130.5,185C 1128.04,186.458 1125.87,188.291 1124,190.5C 1090.11,240.467 1055.61,289.967 1020.5,339C 1016.53,349.112 1012.69,359.278 1009,369.5C 1000.25,370.484 991.418,370.817 982.5,370.5C 982.5,353.5 982.5,336.5 982.5,319.5C 998.5,319.5 1014.5,319.5 1030.5,319.5C 1030.5,302.833 1030.5,286.167 1030.5,269.5C 1016.5,269.667 1002.5,269.5 988.5,269C 1022.25,220.159 1056.25,171.492 1090.5,123C 1160.56,82.311 1230.23,41.1444 1299.5,-0.5 Z"/></g>
<g><path style="opacity:0.006" fill="#000000" d="M 398.5,16.5 C 400.696,16.5652 402.696,17.2319 404.5,18.5C 402.809,20.2562 400.809,20.7562 398.5,20C 397.316,18.8545 397.316,17.6879 398.5,16.5 Z"/></g>
<g><path style="opacity:0.004" fill="#000000" d="M 326.5,62.5 C 327.756,62.4614 328.756,62.9614 329.5,64C 328.167,64.6667 326.833,64.6667 325.5,64C 326.056,63.6174 326.389,63.1174 326.5,62.5 Z"/></g>
<g><path style="opacity:0.004" fill="#000000" d="M 331.5,62.5 C 333.337,62.6395 333.67,63.3061 332.5,64.5C 331.702,64.0431 331.369,63.3764 331.5,62.5 Z"/></g>
<g><path style="opacity:0.006" fill="#000000" d="M 335.5,67.5 C 338.997,67.995 339.997,69.8283 338.5,73C 337.216,73.6838 336.049,73.5171 335,72.5C 334.616,70.8034 334.782,69.1368 335.5,67.5 Z"/></g>
<g><path style="opacity:0.005" fill="#000000" d="M 349.5,91.5 C 349.5,90.5 349.5,89.5 349.5,88.5C 350.978,88.238 352.311,88.5713 353.5,89.5C 352.68,91.1112 351.346,91.7778 349.5,91.5 Z"/></g>
<g><path style="opacity:0.005" fill="#000000" d="M 243.5,93.5 C 243.5,92.5 243.5,91.5 243.5,90.5C 244.833,90.5 246.167,90.5 247.5,90.5C 247.5,91.5 247.5,92.5 247.5,93.5C 246.167,93.5 244.833,93.5 243.5,93.5 Z"/></g>
<g><path style="opacity:0.004" fill="#000000" d="M 276.5,90.5 C 278.973,90.9473 279.14,91.9473 277,93.5C 276.517,92.552 276.351,91.552 276.5,90.5 Z"/></g>
<g><path style="opacity:0.008" fill="#000000" d="M 771.5,102.5 C 774.522,102.981 777.522,103.647 780.5,104.5C 777.216,105.657 773.882,105.824 770.5,105C 771.252,104.329 771.586,103.496 771.5,102.5 Z"/></g>
<g><path style="opacity:0.008" fill="#000000" d="M 782.5,107.5 C 782.688,109.103 782.188,110.437 781,111.5C 778.275,109.242 775.275,108.909 772,110.5C 770,109.167 770,107.833 772,106.5C 775.394,107.456 778.894,107.789 782.5,107.5 Z"/></g>
<g><path style="opacity:0.008" fill="#000000" d="M 764.5,107.5 C 764.5,108.167 764.5,108.833 764.5,109.5C 762.067,108.452 762.067,107.786 764.5,107.5 Z"/></g>
<g><path style="opacity:0.005" fill="#000000" d="M 984.5,143.5 C 976.167,143.5 967.833,143.5 959.5,143.5C 959.5,142.5 959.5,141.5 959.5,140.5C 967.833,140.5 976.167,140.5 984.5,140.5C 984.5,141.5 984.5,142.5 984.5,143.5 Z"/></g>
<g><path style="opacity:1" fill="#fbfbfb" d="M 92.5,152.5 C 117.149,167.473 141.816,182.473 166.5,197.5C 193.624,236.913 220.624,276.413 247.5,316C 223.187,303.674 198.854,291.007 174.5,278C 173.333,276.833 172.167,275.667 171,274.5C 144.563,233.947 118.396,193.28 92.5,152.5 Z"/></g>
<g><path style="opacity:1" fill="#fbfbfb" d="M 1207.5,152.5 C 1208.53,152.897 1208.69,153.563 1208,154.5C 1182,194.5 1156,234.5 1130,274.5C 1105.04,289.56 1079.54,303.393 1053.5,316C 1080.46,276.587 1107.29,237.087 1134,197.5C 1158.81,182.851 1183.31,167.851 1207.5,152.5 Z"/></g>
<g><path style="opacity:0.006" fill="#000000" d="M 967.5,158.5 C 972.195,161.025 972.195,162.358 967.5,162.5C 967.5,161.167 967.5,159.833 967.5,158.5 Z"/></g>
<g><path style="opacity:0.635" fill="#7d7d7d" d="M 640.5,160.5 C 648.019,160.175 655.352,160.508 662.5,161.5C 648.482,161.324 634.482,161.657 620.5,162.5C 621.609,161.71 622.942,161.21 624.5,161C 629.823,160.501 635.156,160.334 640.5,160.5 Z"/></g>
<g><path style="opacity:1" fill="#fdfdfd" d="M 662.5,161.5 C 668.863,161.407 675.196,161.74 681.5,162.5C 683.735,162.205 685.735,162.539 687.5,163.5C 693.441,165.743 699.774,167.076 706.5,167.5C 768.741,182.046 818.074,215.712 854.5,268.5C 822.172,269.667 789.838,269.833 757.5,269C 742.626,257.23 726.293,248.063 708.5,241.5C 704.498,239.39 700.165,238.057 695.5,237.5C 691.833,236.833 688.167,236.167 684.5,235.5C 682.485,234.076 680.152,233.41 677.5,233.5C 675.5,233.5 673.5,233.5 671.5,233.5C 670.737,232.732 669.737,232.232 668.5,232C 656.167,231.333 643.833,231.333 631.5,232C 630.263,232.232 629.263,232.732 628.5,233.5C 627.5,233.5 626.5,233.5 625.5,233.5C 621.812,233.781 618.145,234.281 614.5,235C 613.944,235.383 613.611,235.883 613.5,236.5C 612.833,236.5 612.167,236.5 611.5,236.5C 609.102,236.259 607.102,236.926 605.5,238.5C 601.564,238.733 597.897,239.733 594.5,241.5C 591.546,242.428 588.546,243.261 585.5,244C 584.944,244.383 584.611,244.883 584.5,245.5C 570.128,251.329 556.795,259.163 544.5,269C 512.495,269.833 480.495,269.667 448.5,268.5C 471.991,234.332 501.991,207.666 538.5,188.5C 543.07,187.548 547.07,185.548 550.5,182.5C 562.838,176.16 575.838,171.493 589.5,168.5C 593.841,168.342 597.841,167.342 601.5,165.5C 602.167,165.5 602.833,165.5 603.5,165.5C 609.374,164.951 615.041,163.951 620.5,162.5C 634.482,161.657 648.482,161.324 662.5,161.5 Z"/></g>
<g><path style="opacity:0.361" fill="#4d4d4d" d="M 640.5,160.5 C 648.323,159.344 656.323,159.177 664.5,160C 670.43,160.049 676.097,160.882 681.5,162.5C 675.196,161.74 668.863,161.407 662.5,161.5C 655.352,160.508 648.019,160.175 640.5,160.5 Z"/></g>
<g><path style="opacity:0.663" fill="#7e7e7e" d="M 620.5,162.5 C 615.041,163.951 609.374,164.951 603.5,165.5C 603.918,164.778 604.584,164.278 605.5,164C 610.464,163.088 615.464,162.588 620.5,162.5 Z"/></g>
<g><path style="opacity:0.804" fill="#ababab" d="M 687.5,163.5 C 690.187,163.336 692.854,163.503 695.5,164C 699.266,165.029 702.933,166.196 706.5,167.5C 699.774,167.076 693.441,165.743 687.5,163.5 Z"/></g>
<g><path style="opacity:0.686" fill="#7f7f7f" d="M 601.5,165.5 C 597.841,167.342 593.841,168.342 589.5,168.5C 593.159,166.658 597.159,165.658 601.5,165.5 Z"/></g>
<g><path style="opacity:0.009" fill="#000000" d="M -0.5,180.5 C 0.833333,181.833 0.833333,183.167 -0.5,184.5C -0.5,183.167 -0.5,181.833 -0.5,180.5 Z"/></g>
<g><path style="opacity:0.969" fill="#b7b7b7" d="M 550.5,182.5 C 547.07,185.548 543.07,187.548 538.5,188.5C 542.158,185.939 546.158,183.939 550.5,182.5 Z"/></g>
<g><path style="opacity:0.007" fill="#000000" d="M -0.5,191.5 C 2.5,191.5 5.5,191.5 8.5,191.5C 8.58577,192.496 8.25244,193.329 7.5,194C 4.85397,194.497 2.1873,194.664 -0.5,194.5C -0.5,193.5 -0.5,192.5 -0.5,191.5 Z"/></g>
<g><path style="opacity:0.007" fill="#000000" d="M -0.5,198.5 C 2.32887,198.325 3.99554,199.658 4.5,202.5C 5.8491,210.899 5.51577,219.232 3.5,227.5C 2.14819,228.524 0.814858,229.524 -0.5,230.5C -0.5,219.833 -0.5,209.167 -0.5,198.5 Z M 1.5,203.5 C 2.80856,205.571 3.47523,208.071 3.5,211C 3.16667,213.5 2.83333,216 2.5,218.5C 1.50585,213.544 1.17252,208.544 1.5,203.5 Z"/></g>
<g><path style="opacity:0.004" fill="#000000" d="M 352.5,209.5 C 354.337,209.639 354.67,210.306 353.5,211.5C 352.702,211.043 352.369,210.376 352.5,209.5 Z"/></g>
<g><path style="opacity:0.767" fill="#8d8d8d" d="M 671.5,233.5 C 657.171,232.186 642.837,232.186 628.5,233.5C 629.263,232.732 630.263,232.232 631.5,232C 643.833,231.333 656.167,231.333 668.5,232C 669.737,232.232 670.737,232.732 671.5,233.5 Z"/></g>
<g><path style="opacity:0.647" fill="#6c6c6c" d="M 625.5,233.5 C 621.79,235.145 617.79,236.145 613.5,236.5C 613.611,235.883 613.944,235.383 614.5,235C 618.145,234.281 621.812,233.781 625.5,233.5 Z"/></g>
<g><path style="opacity:0.8" fill="#777777" d="M 677.5,233.5 C 680.152,233.41 682.485,234.076 684.5,235.5C 681.772,235.829 679.438,235.163 677.5,233.5 Z"/></g>
<g><path style="opacity:0.631" fill="#515151" d="M 611.5,236.5 C 609.898,238.074 607.898,238.741 605.5,238.5C 607.102,236.926 609.102,236.259 611.5,236.5 Z"/></g>
<g><path style="opacity:0.91" fill="#909090" d="M 695.5,237.5 C 700.165,238.057 704.498,239.39 708.5,241.5C 703.835,240.943 699.502,239.61 695.5,237.5 Z"/></g>
<g><path style="opacity:0.62" fill="#575757" d="M 594.5,241.5 C 591.646,243.729 588.313,245.062 584.5,245.5C 584.611,244.883 584.944,244.383 585.5,244C 588.546,243.261 591.546,242.428 594.5,241.5 Z"/></g>
<g><path style="opacity:0.004" fill="#000000" d="M 1284.5,264.5 C 1287.57,264.183 1290.57,264.516 1293.5,265.5C 1292,265.833 1290.5,266.167 1289,266.5C 1287.01,266.431 1285.51,265.765 1284.5,264.5 Z"/></g>
<g><path style="opacity:1" fill="#fdfdfd" d="M 277.5,278.5 C 288.833,278.5 300.167,278.5 311.5,278.5C 318.003,343.526 324.836,408.526 332,473.5C 339.164,408.526 345.997,343.526 352.5,278.5C 363.833,278.5 375.167,278.5 386.5,278.5C 376.746,361.529 366.746,444.529 356.5,527.5C 340.167,527.5 323.833,527.5 307.5,527.5C 297.253,444.527 287.253,361.527 277.5,278.5 Z"/></g>
<g><path style="opacity:1" fill="#fdfdfd" d="M 403.5,278.5 C 422.743,278.174 441.91,278.507 461,279.5C 469.435,362.184 477.935,444.851 486.5,527.5C 475.833,527.5 465.167,527.5 454.5,527.5C 452.768,511.177 451.101,494.843 449.5,478.5C 437.833,478.5 426.167,478.5 414.5,478.5C 412.894,494.837 411.227,511.17 409.5,527.5C 398.48,527.832 387.48,527.499 376.5,526.5C 385.503,443.804 394.503,361.137 403.5,278.5 Z"/></g>
<g><path style="opacity:1" fill="#fcfcfc" d="M 496.5,278.5 C 507.5,278.5 518.5,278.5 529.5,278.5C 529.5,350.833 529.5,423.167 529.5,495.5C 541.833,495.5 554.167,495.5 566.5,495.5C 566.5,506.167 566.5,516.833 566.5,527.5C 543.167,527.5 519.833,527.5 496.5,527.5C 496.5,444.5 496.5,361.5 496.5,278.5 Z"/></g>
<g><path style="opacity:1" fill="#fdfdfd" d="M 578.5,278.5 C 589.167,278.5 599.833,278.5 610.5,278.5C 610.333,308.502 610.5,338.502 611,368.5C 619.151,338.561 626.985,308.561 634.5,278.5C 656.177,278.167 677.844,278.5 699.5,279.5C 706.499,316.829 713.499,354.162 720.5,391.5C 727.547,354.55 734.381,317.55 741,280.5C 746.59,279.191 752.423,278.525 758.5,278.5C 764.167,278.667 769.833,278.833 775.5,279C 762.545,334.101 749.712,389.268 737,444.5C 736.5,472.165 736.333,499.831 736.5,527.5C 725.833,527.5 715.167,527.5 704.5,527.5C 704.667,499.831 704.5,472.165 704,444.5C 692.121,391.987 679.787,339.654 667,287.5C 656.397,323.142 645.897,358.809 635.5,394.5C 648.167,438.5 660.833,482.5 673.5,526.5C 662.186,527.499 650.853,527.832 639.5,527.5C 630.004,492.186 620.504,456.852 611,421.5C 610.5,456.832 610.333,492.165 610.5,527.5C 599.833,527.5 589.167,527.5 578.5,527.5C 578.5,444.5 578.5,361.5 578.5,278.5 Z"/></g>
<g><path style="opacity:1" fill="#fefefe" d="M 780.5,278.5 C 804.502,278.333 828.502,278.5 852.5,279C 859.333,281.833 864.167,286.667 867,293.5C 867.667,326.5 867.667,359.5 867,392.5C 865.495,397.355 862.662,401.188 858.5,404C 864.82,406.986 868.987,411.819 871,418.5C 871.5,454.832 871.667,491.165 871.5,527.5C 860.833,527.5 850.167,527.5 839.5,527.5C 839.5,492.167 839.5,456.833 839.5,421.5C 830.5,421.5 821.5,421.5 812.5,421.5C 812.5,456.833 812.5,492.167 812.5,527.5C 801.833,527.5 791.167,527.5 780.5,527.5C 780.5,444.5 780.5,361.5 780.5,278.5 Z"/></g>
<g><path style="opacity:1" fill="#fefefe" d="M 889.5,278.5 C 900.167,278.5 910.833,278.5 921.5,278.5C 921.5,361.5 921.5,444.5 921.5,527.5C 910.833,527.5 900.167,527.5 889.5,527.5C 889.5,444.5 889.5,361.5 889.5,278.5 Z"/></g>
<g><path style="opacity:1" fill="#fefefe" d="M 941.5,278.5 C 968.167,278.5 994.833,278.5 1021.5,278.5C 1021.5,289.167 1021.5,299.833 1021.5,310.5C 1005.5,310.5 989.5,310.5 973.5,310.5C 973.5,333.5 973.5,356.5 973.5,379.5C 984.833,379.5 996.167,379.5 1007.5,379.5C 1007.5,390.167 1007.5,400.833 1007.5,411.5C 996.167,411.5 984.833,411.5 973.5,411.5C 973.5,439.5 973.5,467.5 973.5,495.5C 990.5,495.5 1007.5,495.5 1024.5,495.5C 1024.5,506.167 1024.5,516.833 1024.5,527.5C 996.833,527.5 969.167,527.5 941.5,527.5C 941.5,444.5 941.5,361.5 941.5,278.5 Z"/></g>
<g><path style="opacity:0.005" fill="#000000" d="M 1301.5,279.5 C 1301.5,280.167 1301.5,280.833 1301.5,281.5C 1280.17,280.833 1280.17,280.167 1301.5,279.5 Z"/></g>
<g><path style="opacity:0.004" fill="#000000" d="M 1285.5,282.5 C 1288.25,282.187 1290.91,282.52 1293.5,283.5C 1292.17,283.833 1290.83,284.167 1289.5,284.5C 1287.67,284.415 1286.33,283.748 1285.5,282.5 Z"/></g>
<g><path style="opacity:0.008" fill="#000000" d="M -0.5,284.5 C 3.5,285.167 3.5,285.833 -0.5,286.5C -0.5,285.833 -0.5,285.167 -0.5,284.5 Z"/></g>
<g><path style="opacity:0.011" fill="#000000" d="M 1246.5,286.5 C 1247.83,286.5 1249.17,286.5 1250.5,286.5C 1250.5,287.833 1250.5,289.167 1250.5,290.5C 1249.17,290.5 1247.83,290.5 1246.5,290.5C 1246.5,289.167 1246.5,287.833 1246.5,286.5 Z"/></g>
<g><path style="opacity:0.004" fill="#000000" d="M 1275.5,292.5 C 1277.34,292.639 1277.67,293.306 1276.5,294.5C 1275.7,294.043 1275.37,293.376 1275.5,292.5 Z"/></g>
<g><path style="opacity:0.005" fill="#000000" d="M 1277.5,300.5 C 1278.98,300.238 1280.31,300.571 1281.5,301.5C 1279.54,304.194 1278.2,303.861 1277.5,300.5 Z"/></g>
<g><path style="opacity:0.004" fill="#000000" d="M 1283.5,300.5 C 1285.86,300.337 1288.19,300.503 1290.5,301C 1287.62,304.511 1285.29,304.344 1283.5,300.5 Z"/></g>
<g><path style="opacity:0.008" fill="#000000" d="M 1301.5,300.5 C 1301.5,301.5 1301.5,302.5 1301.5,303.5C 1297.94,301.717 1297.94,300.717 1301.5,300.5 Z"/></g>
<g><path style="opacity:0.007" fill="#000000" d="M -0.5,308.5 C 2.16667,308.5 4.83333,308.5 7.5,308.5C 7.5,309.5 7.5,310.5 7.5,311.5C 4.83333,311.5 2.16667,311.5 -0.5,311.5C -0.5,310.5 -0.5,309.5 -0.5,308.5 Z"/></g>
<g><path style="opacity:0.424" fill="#000000" d="M 812.5,310.5 C 820.167,310.5 827.833,310.5 835.5,310.5C 835.5,336.833 835.5,363.167 835.5,389.5C 827.833,389.5 820.167,389.5 812.5,389.5C 812.5,363.167 812.5,336.833 812.5,310.5 Z"/></g>
<g><path style="opacity:0.438" fill="#020202" d="M 431.5,314.5 C 436.945,358.276 441.612,402.276 445.5,446.5C 436.5,446.5 427.5,446.5 418.5,446.5C 422.833,402.501 427.167,358.501 431.5,314.5 Z"/></g>
<g><path style="opacity:0.008" fill="#000000" d="M -0.5,341.5 C 0.833333,342.167 0.833333,342.833 -0.5,343.5C -0.5,342.833 -0.5,342.167 -0.5,341.5 Z"/></g>
<g><path style="opacity:1" fill="#fdfdfd" d="M 294.5,499.5 C 296.397,511.665 298.064,523.998 299.5,536.5C 306.167,536.5 312.833,536.5 319.5,536.5C 315.537,556.355 315.537,576.188 319.5,596C 296.534,597.675 275.867,591.675 257.5,578C 244.258,566.149 236.592,551.316 234.5,533.5C 254.563,522.139 274.563,510.806 294.5,499.5 Z"/></g>
<g><path style="opacity:1" fill="#fdfdfd" d="M 1033.5,515.5 C 1044.96,520.729 1055.96,526.729 1066.5,533.5C 1060.22,568.944 1039.22,589.444 1003.5,595C 996.215,596.414 988.882,596.747 981.5,596C 985.49,576.202 985.49,556.369 981.5,536.5C 998.833,536.5 1016.17,536.5 1033.5,536.5C 1033.5,529.5 1033.5,522.5 1033.5,515.5 Z"/></g>
<g><path style="opacity:0.009" fill="#000000" d="M -0.5,519.5 C 1.12071,519.787 2.12071,520.787 2.5,522.5C 1.99525,523.919 0.995251,524.585 -0.5,524.5C -0.5,522.833 -0.5,521.167 -0.5,519.5 Z"/></g>
<g><path style="opacity:1" fill="#fdfdfd" d="M 466.5,599.5 C 466.77,604.45 467.77,609.117 469.5,613.5C 470.681,617.743 471.348,622.076 471.5,626.5C 471.588,631.536 472.088,636.536 473,641.5C 473.278,642.416 473.778,643.082 474.5,643.5C 475.466,650.819 475.966,658.152 476,665.5C 471.066,658.446 464.233,654.612 455.5,654C 431.927,653.188 412.094,661.355 396,678.5C 394.235,681.032 392.735,683.699 391.5,686.5C 390.833,689.833 390.167,693.167 389.5,696.5C 376.012,677.538 363.512,657.872 352,637.5C 348.773,631.533 346.606,625.2 345.5,618.5C 345.843,616.517 345.176,615.183 343.5,614.5C 339.029,588.722 336.696,562.722 336.5,536.5C 366.502,536.333 396.502,536.5 426.5,537C 437.432,546.597 446.932,557.431 455,569.5C 460.232,578.964 464.065,588.964 466.5,599.5 Z"/></g>
<g><path style="opacity:1" fill="#fdfdfd" d="M 589.5,564.5 C 591.033,566.245 593.033,567.245 595.5,567.5C 599.33,568.921 603.33,569.921 607.5,570.5C 609.102,572.074 611.102,572.741 613.5,572.5C 614.167,572.5 614.833,572.5 615.5,572.5C 615.918,573.222 616.584,573.722 617.5,574C 621.51,574.501 625.51,575.001 629.5,575.5C 643.502,576.81 657.502,576.81 671.5,575.5C 677.216,575.773 682.549,574.773 687.5,572.5C 687.833,572.5 688.167,572.5 688.5,572.5C 691.522,572.196 694.522,571.696 697.5,571C 698.056,570.617 698.389,570.117 698.5,569.5C 699.167,569.5 699.833,569.5 700.5,569.5C 702.898,569.741 704.898,569.074 706.5,567.5C 709.31,566.181 712.31,565.181 715.5,564.5C 717.967,564.245 719.967,563.245 721.5,561.5C 735.412,554.872 748.412,546.706 760.5,537C 792.172,536.167 823.839,536.333 855.5,537.5C 827.93,578.41 791.597,608.743 746.5,628.5C 740.875,646.086 732.375,662.086 721,676.5C 715.198,688.241 711.198,700.574 709,713.5C 706.563,727.435 704.563,741.435 703,755.5C 698.567,748.353 692.4,743.186 684.5,740C 667.893,734.81 650.893,733.143 633.5,735C 622.778,736.53 613.111,740.53 604.5,747C 602.212,749.743 600.045,752.577 598,755.5C 596.046,733.44 592.046,711.773 586,690.5C 584,685.833 582,681.167 580,676.5C 567.944,662.059 559.277,645.726 554,627.5C 509.55,608.227 474.05,578.227 447.5,537.5C 479.161,536.333 510.828,536.167 542.5,537C 556.356,549.377 572.023,558.543 589.5,564.5 Z"/></g>
<g><path style="opacity:1" fill="#fdfdfd" d="M 825.5,655.5 C 827.235,648.736 828.235,641.736 828.5,634.5C 829.194,625.042 830.527,615.708 832.5,606.5C 833.924,604.485 834.59,602.152 834.5,599.5C 838.216,583.07 845.382,568.403 856,555.5C 862.221,549.279 868.387,543.113 874.5,537C 904.498,536.5 934.498,536.333 964.5,536.5C 965.11,567.418 961.277,597.752 953,627.5C 948.876,637.081 944.209,646.414 939,655.5C 929.696,669.637 920.196,683.637 910.5,697.5C 910.472,694.003 910.306,690.336 910,686.5C 903.783,675.949 895.283,667.783 884.5,662C 879.12,659.994 873.787,657.994 868.5,656C 856.369,652.344 844.369,652.677 832.5,657C 829.628,659.537 827.128,662.37 825,665.5C 824.253,662.076 824.42,658.743 825.5,655.5 Z"/></g>
<g><path style="opacity:0.008" fill="#000000" d="M 64.5,541.5 C 66.3464,541.222 67.6798,541.889 68.5,543.5C 67.3112,544.429 65.9778,544.762 64.5,544.5C 64.5,543.5 64.5,542.5 64.5,541.5 Z"/></g>
<g><path style="opacity:1" fill="#fbfbfb" d="M 223.5,546.5 C 227.138,562.096 235.138,575.096 247.5,585.5C 210.882,599.429 174.215,613.262 137.5,627C 95.374,633.429 53.374,640.095 11.5,647C 82.348,613.741 153.015,580.241 223.5,546.5 Z"/></g>
<g><path style="opacity:1" fill="#fbfbfb" d="M 1076.5,547.5 C 1147.41,579.952 1218.07,612.952 1288.5,646.5C 1247.05,640.601 1205.38,634.101 1163.5,627C 1126.69,613.426 1090.03,599.592 1053.5,585.5C 1065.77,575.617 1073.44,562.95 1076.5,547.5 Z"/></g>
<g><path style="opacity:0.007" fill="#000000" d="M 71.5,552.5 C 72.1023,555.142 73.4356,557.475 75.5,559.5C 74.6798,561.111 73.3464,561.778 71.5,561.5C 71.5,558.5 71.5,555.5 71.5,552.5 Z"/></g>
<g><path style="opacity:0.812" fill="#999999" d="M 721.5,561.5 C 719.967,563.245 717.967,564.245 715.5,564.5C 717.033,562.755 719.033,561.755 721.5,561.5 Z"/></g>
<g><path style="opacity:0.651" fill="#6d6d6d" d="M 589.5,564.5 C 591.967,564.755 593.967,565.755 595.5,567.5C 593.033,567.245 591.033,566.245 589.5,564.5 Z"/></g>
<g><path style="opacity:0.867" fill="#9e9e9e" d="M 706.5,567.5 C 704.898,569.074 702.898,569.741 700.5,569.5C 702.102,567.926 704.102,567.259 706.5,567.5 Z"/></g>
<g><path style="opacity:0.537" fill="#676767" d="M 607.5,570.5 C 609.898,570.259 611.898,570.926 613.5,572.5C 611.102,572.741 609.102,572.074 607.5,570.5 Z"/></g>
<g><path style="opacity:0.702" fill="#7f7f7f" d="M 698.5,569.5 C 698.389,570.117 698.056,570.617 697.5,571C 694.522,571.696 691.522,572.196 688.5,572.5C 691.583,571.007 694.917,570.007 698.5,569.5 Z"/></g>
<g><path style="opacity:0.557" fill="#777777" d="M 615.5,572.5 C 620.45,572.77 625.117,573.77 629.5,575.5C 625.51,575.001 621.51,574.501 617.5,574C 616.584,573.722 615.918,573.222 615.5,572.5 Z"/></g>
<g><path style="opacity:0.855" fill="#9d9d9d" d="M 687.5,572.5 C 682.549,574.773 677.216,575.773 671.5,575.5C 676.606,573.956 681.939,572.956 687.5,572.5 Z"/></g>
<g><path style="opacity:1" fill="#f2f2f2" d="M 256.5,592.5 C 256.56,591.957 256.893,591.624 257.5,591.5C 277.093,603.36 298.427,609.36 321.5,609.5C 322.58,612.332 323.58,615.165 324.5,618C 297.675,620.229 275.008,611.729 256.5,592.5 Z"/></g>
<g><path style="opacity:1" fill="#f4f4f4" d="M 1042.5,591.5 C 1043.24,591.369 1043.91,591.536 1044.5,592C 1026,611.282 1003.33,619.949 976.5,618C 977.727,615.264 978.727,612.431 979.5,609.5C 998.556,608.456 1016.89,604.289 1034.5,597C 1037.41,595.391 1040.07,593.558 1042.5,591.5 Z"/></g>
<g><path style="opacity:0.753" fill="#767676" d="M 834.5,599.5 C 834.59,602.152 833.924,604.485 832.5,606.5C 832.41,603.848 833.076,601.515 834.5,599.5 Z"/></g>
<g><path style="opacity:0.894" fill="#9e9e9e" d="M 466.5,599.5 C 468.23,603.883 469.23,608.55 469.5,613.5C 467.77,609.117 466.77,604.45 466.5,599.5 Z"/></g>
<g><path style="opacity:0.639" fill="#767676" d="M 343.5,614.5 C 345.176,615.183 345.843,616.517 345.5,618.5C 344.655,617.329 343.989,615.995 343.5,614.5 Z"/></g>
<g><path style="opacity:0.941" fill="#979797" d="M 471.5,626.5 C 472.804,631.984 473.804,637.651 474.5,643.5C 473.778,643.082 473.278,642.416 473,641.5C 472.088,636.536 471.588,631.536 471.5,626.5 Z"/></g>
<g><path style="opacity:0.918" fill="#9f9f9f" d="M 828.5,634.5 C 828.235,641.736 827.235,648.736 825.5,655.5C 825.614,648.239 826.614,641.239 828.5,634.5 Z"/></g>
<g><path style="opacity:1" fill="#fbfbfb" d="M 475.5,701.5 C 475.77,706.45 476.77,711.117 478.5,715.5C 482.797,733.255 486.463,751.255 489.5,769.5C 489.41,772.152 490.076,774.485 491.5,776.5C 495.806,796.398 499.806,816.398 503.5,836.5C 503.41,839.152 504.076,841.485 505.5,843.5C 509.753,862.778 513.586,882.111 517,901.5C 479.253,835.004 441.253,768.67 403,702.5C 402.333,698.5 402.333,694.5 403,690.5C 413.761,675.033 428.595,666.7 447.5,665.5C 455.292,665.153 462.126,667.486 468,672.5C 471.955,681.769 474.455,691.436 475.5,701.5 Z"/></g>
<g><path style="opacity:0.871" fill="#929292" d="M 860.5,666.5 C 853.798,666.336 847.131,666.669 840.5,667.5C 844.034,665.952 847.867,665.286 852,665.5C 855.021,665.502 857.854,665.836 860.5,666.5 Z"/></g>
<g><path style="opacity:1" fill="#fbfbfb" d="M 860.5,666.5 C 876.67,668.831 889.17,676.831 898,690.5C 898.667,694.167 898.667,697.833 898,701.5C 859.958,768.263 821.958,834.929 784,901.5C 783.833,900.833 783.667,900.167 783.5,899.5C 784.906,895.235 785.906,890.902 786.5,886.5C 787.924,884.485 788.59,882.152 788.5,879.5C 799.783,822.419 811.45,765.419 823.5,708.5C 824.924,706.485 825.59,704.152 825.5,701.5C 826.596,691.448 829.096,681.781 833,672.5C 835.128,670.192 837.628,668.526 840.5,667.5C 847.131,666.669 853.798,666.336 860.5,666.5 Z"/></g>
<g><path style="opacity:0.694" fill="#848484" d="M 391.5,686.5 C 391.823,690.226 391.489,693.893 390.5,697.5C 389.893,697.376 389.56,697.043 389.5,696.5C 390.167,693.167 390.833,689.833 391.5,686.5 Z"/></g>
<g><path style="opacity:0.624" fill="#666666" d="M 825.5,701.5 C 825.59,704.152 824.924,706.485 823.5,708.5C 823.41,705.848 824.076,703.515 825.5,701.5 Z"/></g>
<g><path style="opacity:0.831" fill="#969696" d="M 475.5,701.5 C 477.23,705.883 478.23,710.55 478.5,715.5C 476.77,711.117 475.77,706.45 475.5,701.5 Z"/></g>
<g><path style="opacity:1" fill="#fdfdfd" d="M 636.5,744.5 C 653.635,743.313 670.301,745.479 686.5,751C 694.656,753.814 698.989,759.481 699.5,768C 683.352,845.909 667.019,923.742 650.5,1001.5C 633.763,923.612 617.429,845.612 601.5,767.5C 601.571,760.861 604.571,756.027 610.5,753C 618.86,748.824 627.527,745.99 636.5,744.5 Z"/></g>
<g><path style="opacity:0.004" fill="#000000" d="M 1073.5,749.5 C 1076.72,749.108 1079.72,749.608 1082.5,751C 1081,751.167 1079.5,751.333 1078,751.5C 1076.01,751.431 1074.51,750.765 1073.5,749.5 Z"/></g>
<g><path style="opacity:0.714" fill="#858585" d="M 489.5,769.5 C 490.924,771.515 491.59,773.848 491.5,776.5C 490.076,774.485 489.41,772.152 489.5,769.5 Z"/></g>
<g><path style="opacity:0.698" fill="#868686" d="M 503.5,836.5 C 504.924,838.515 505.59,840.848 505.5,843.5C 504.076,841.485 503.41,839.152 503.5,836.5 Z"/></g>
<g><path style="opacity:0.004" fill="#000000" d="M 9.5,852.5 C 9.36055,854.337 8.69388,854.67 7.5,853.5C 7.95689,852.702 8.62356,852.369 9.5,852.5 Z"/></g>
<g><path style="opacity:0.004" fill="#000000" d="M 927.5,853.5 C 927.361,855.337 926.694,855.67 925.5,854.5C 925.957,853.702 926.624,853.369 927.5,853.5 Z"/></g>
<g><path style="opacity:0.667" fill="#858585" d="M 788.5,879.5 C 788.59,882.152 787.924,884.485 786.5,886.5C 786.41,883.848 787.076,881.515 788.5,879.5 Z"/></g>
<g><path style="opacity:0.006" fill="#000000" d="M 259.5,895.5 C 262.518,895.335 265.518,895.502 268.5,896C 266.377,897.194 264.043,897.86 261.5,898C 263.577,898.192 265.577,898.692 267.5,899.5C 265.615,900.197 265.282,901.197 266.5,902.5C 264.167,903.833 261.833,903.833 259.5,902.5C 259.798,900.202 259.798,897.869 259.5,895.5 Z"/></g>
<g><path style="opacity:0.004" fill="#000000" d="M 0.5,917.5 C 2.60395,917.201 4.60395,917.534 6.5,918.5C 5.5,918.833 4.5,919.167 3.5,919.5C 1.97041,919.36 0.970406,918.693 0.5,917.5 Z"/></g>
<g><path style="opacity:0.007" fill="#000000" d="M 1301.5,919.5 C 1301.5,920.833 1301.5,922.167 1301.5,923.5C 1300.5,923.5 1299.5,923.5 1298.5,923.5C 1298.5,922.167 1298.5,920.833 1298.5,919.5C 1299.5,919.5 1300.5,919.5 1301.5,919.5 Z"/></g>
<g><path style="opacity:0.006" fill="#000000" d="M 1301.5,925.5 C 1301.5,926.5 1301.5,927.5 1301.5,928.5C 1299.02,927.26 1299.02,926.26 1301.5,925.5 Z"/></g>
<g><path style="opacity:0.006" fill="#000000" d="M 17.5,935.5 C 18.5,935.5 19.5,935.5 20.5,935.5C 20.5,938.167 20.5,940.833 20.5,943.5C 19.5,943.5 18.5,943.5 17.5,943.5C 17.5,940.833 17.5,938.167 17.5,935.5 Z"/></g>
<g><path style="opacity:0.007" fill="#000000" d="M 739.5,1000.5 C 742.304,999.362 745.304,999.195 748.5,1000C 745.518,1000.5 742.518,1000.66 739.5,1000.5 Z"/></g>
<g><path style="opacity:0.007" fill="#000000" d="M 284.5,1000.5 C 283.486,1001.76 281.986,1002.43 280,1002.5C 278.5,1002.17 277,1001.83 275.5,1001.5C 278.428,1000.52 281.428,1000.18 284.5,1000.5 Z"/></g>
</svg>
